<?xml version="1.0" encoding="UTF-8" standalone="no"?>
<!-- Created with Inkscape (http://www.inkscape.org/) -->

<svg
   width="135.46666mm"
   height="135.46667mm"
   viewBox="0 0 135.46666 135.46667"
   version="1.1"
   id="svg17788"
   inkscape:version="1.1.2 (0a00cf5339, 2022-02-04)"
   sodipodi:docname="crossplane-bootstrapper.svg"
   xmlns:inkscape="http://www.inkscape.org/namespaces/inkscape"
   xmlns:sodipodi="http://sodipodi.sourceforge.net/DTD/sodipodi-0.dtd"
   xmlns="http://www.w3.org/2000/svg"
   xmlns:svg="http://www.w3.org/2000/svg">
  <sodipodi:namedview
     id="namedview17790"
     pagecolor="#ffffff"
     bordercolor="#000000"
     borderopacity="0.25"
     inkscape:pageshadow="2"
     inkscape:pageopacity="0.0"
     inkscape:pagecheckerboard="0"
     inkscape:document-units="mm"
     showgrid="false"
     inkscape:zoom="0.69664703"
     inkscape:cx="107.65854"
     inkscape:cy="268.42862"
     inkscape:window-width="1920"
     inkscape:window-height="1053"
     inkscape:window-x="0"
     inkscape:window-y="0"
     inkscape:window-maximized="1"
     inkscape:current-layer="g16053"
     fit-margin-top="0"
     fit-margin-left="0"
     fit-margin-right="0"
     fit-margin-bottom="0" />
  <defs
     id="defs17785">
    <mask
       id="mask-2-3-1"
       fill="#ffffff">
      <path
         d="m 0.01899985,16.957364 c -0.0250624,0.577353 -0.02379443,1.155549 0.0038,1.732787 C 0.01519988,18.838349 0,18.984648 0,19.134747 v 29.189466 c 0,5.582156 4.5561635,10.149719 10.125019,10.149719 h 15.237878 c 5.566955,0 10.125019,-4.567563 10.125019,-10.149719 V 19.134747 c 0,-0.170999 -0.019,-0.334397 -0.0266,-0.501596 0.02766,-0.558238 0.02829,-1.117487 0.0019,-1.675787 C 35.03382,7.5182398 27.262882,0 17.742058,0 8.2193343,0 0.44839641,7.5182398 0.01899985,16.955464 Z"
         id="use12-6-8" />
    </mask>
    <mask
       id="mask-4-7-7"
       fill="#ffffff">
      <path
         d="m 0.01899985,16.957364 c -0.0250624,0.577353 -0.02379443,1.155549 0.0038,1.732787 C 0.01519988,18.838349 0,18.984648 0,19.134747 v 29.189466 c 0,5.582156 4.5561635,10.149719 10.125019,10.149719 h 15.237878 c 5.566955,0 10.125019,-4.567563 10.125019,-10.149719 V 19.134747 c 0,-0.170999 -0.019,-0.334397 -0.0266,-0.501596 0.02766,-0.558238 0.02829,-1.117487 0.0019,-1.675787 C 35.03382,7.5182398 27.262882,0 17.742058,0 8.2193343,0 0.44839641,7.5182398 0.01899985,16.955464 Z"
         id="use20-5-9" />
    </mask>
    <mask
       id="mask-6-3-2"
       fill="#ffffff">
      <path
         d="m 0.01899985,16.957364 c -0.0250624,0.577353 -0.02379443,1.155549 0.0038,1.732787 C 0.01519988,18.838349 0,18.984648 0,19.134747 v 29.189466 c 0,5.582156 4.5561635,10.149719 10.125019,10.149719 h 15.237878 c 5.566955,0 10.125019,-4.567563 10.125019,-10.149719 V 19.134747 c 0,-0.170999 -0.019,-0.334397 -0.0266,-0.501596 0.02766,-0.558238 0.02829,-1.117487 0.0019,-1.675787 C 35.03382,7.5182398 27.262882,0 17.742058,0 8.2193343,0 0.44839641,7.5182398 0.01899985,16.955464 Z"
         id="use29-5-0" />
    </mask>
    <mask
       id="mask-2-3-1-6"
       fill="#ffffff">
      <path
         d="m 0.01899985,16.957364 c -0.0250624,0.577353 -0.02379443,1.155549 0.0038,1.732787 C 0.01519988,18.838349 0,18.984648 0,19.134747 v 29.189466 c 0,5.582156 4.5561635,10.149719 10.125019,10.149719 h 15.237878 c 5.566955,0 10.125019,-4.567563 10.125019,-10.149719 V 19.134747 c 0,-0.170999 -0.019,-0.334397 -0.0266,-0.501596 0.02766,-0.558238 0.02829,-1.117487 0.0019,-1.675787 C 35.03382,7.5182398 27.262882,0 17.742058,0 8.2193343,0 0.44839641,7.5182398 0.01899985,16.955464 Z"
         id="use12-6-8-1" />
    </mask>
    <mask
       id="mask-4-7-7-5"
       fill="#ffffff">
      <path
         d="m 0.01899985,16.957364 c -0.0250624,0.577353 -0.02379443,1.155549 0.0038,1.732787 C 0.01519988,18.838349 0,18.984648 0,19.134747 v 29.189466 c 0,5.582156 4.5561635,10.149719 10.125019,10.149719 h 15.237878 c 5.566955,0 10.125019,-4.567563 10.125019,-10.149719 V 19.134747 c 0,-0.170999 -0.019,-0.334397 -0.0266,-0.501596 0.02766,-0.558238 0.02829,-1.117487 0.0019,-1.675787 C 35.03382,7.5182398 27.262882,0 17.742058,0 8.2193343,0 0.44839641,7.5182398 0.01899985,16.955464 Z"
         id="use20-5-9-5" />
    </mask>
    <mask
       id="mask-6-3-2-4"
       fill="#ffffff">
      <path
         d="m 0.01899985,16.957364 c -0.0250624,0.577353 -0.02379443,1.155549 0.0038,1.732787 C 0.01519988,18.838349 0,18.984648 0,19.134747 v 29.189466 c 0,5.582156 4.5561635,10.149719 10.125019,10.149719 h 15.237878 c 5.566955,0 10.125019,-4.567563 10.125019,-10.149719 V 19.134747 c 0,-0.170999 -0.019,-0.334397 -0.0266,-0.501596 0.02766,-0.558238 0.02829,-1.117487 0.0019,-1.675787 C 35.03382,7.5182398 27.262882,0 17.742058,0 8.2193343,0 0.44839641,7.5182398 0.01899985,16.955464 Z"
         id="use29-5-0-7" />
    </mask>
  </defs>
  <g
     inkscape:label="Layer 1"
     inkscape:groupmode="layer"
     id="layer1"
     transform="translate(-238.00197,-73.550553)">
    <g
       id="g17155"
       transform="matrix(0.2820657,0,0,0.2820657,233.5265,48.835112)">
      <g
         id="g16053">
        <g
           id="g11084">
          <g
             id="g11074">
            <path
               style="fill:#dbdcdc"
               d="M 153.506,256.216 V 491.251 H 84.129 V 256.216 c 0,-17.604 20.325,-43.405 34.695,-43.405 14.352,0.001 34.682,25.801 34.682,43.405 z"
               id="path11068"
               sodipodi:nodetypes="sccscs" />
            <rect
               x="84.128998"
               y="273.741"
               style="fill:#bcbcbb"
               width="69.376999"
               height="13.933"
               id="rect11072" />
            <rect
               x="84.128998"
               y="335.65024"
               style="fill:#bcbcbb"
               width="69.376999"
               height="13.933"
               id="rect17367" />
          </g>
          <g
             id="g11082">
            <path
               style="fill:#dbdcdc"
               d="M 429.498,256.216 V 491.251 H 360.12 V 256.216 c 0,-17.604 20.325,-43.405 34.704,-43.405 14.357,0.001 34.674,25.801 34.674,43.405 z"
               id="path11076"
               sodipodi:nodetypes="sccscs" />
            <rect
               x="360.12"
               y="273.741"
               style="fill:#bcbcbb"
               width="69.377998"
               height="13.933"
               id="rect11080" />
            <rect
               x="360.12"
               y="335.65024"
               style="fill:#bcbcbb"
               width="69.377998"
               height="13.933"
               id="rect17369" />
          </g>
        </g>
        <path
           style="fill:#215574;fill-opacity:1"
           d="M 345.46,249.766 V 491.252 H 166.535 V 249.766 c 0,-49.4 52.416,-121.766 89.463,-121.766 37.056,0 89.462,72.366 89.462,121.766 z"
           id="path11086"
           sodipodi:nodetypes="sccsss" />
        <rect
           x="166.535"
           y="247.02863"
           style="fill:#e9d3c4;opacity:0.4"
           width="178.924"
           height="13.942"
           id="rect11090" />
        <path
           style="fill:#ffffff"
           d="m 443.485,431.304 c -1.279,13.39 -8.107,18.744 -19.03,20.348 -2.708,0.401 -5.657,0.578 -8.851,0.578 H 96.391 c -3.189,0 -6.147,-0.178 -8.842,-0.57 -10.936,-1.612 -17.765,-6.966 -19.034,-20.356 -1.461,-15.332 10.343,-25.355 45.026,-50.175 38.218,-27.368 83.516,-60.821 89.266,-128.813 h 106.38 c 5.746,67.992 51.043,101.445 89.271,128.813 34.683,24.82 46.487,34.842 45.027,50.175 z"
           id="path11092"
           sodipodi:nodetypes="ccssccccccc" />
        <g
           id="g11100">
          <polygon
             style="fill:#5a5553"
             points="251.512,512 244.786,464.925 211.146,464.925 204.425,512 "
             id="polygon11096" />
          <polygon
             style="fill:#5a5553"
             points="307.575,512 300.845,464.925 267.214,464.925 260.483,512 "
             id="polygon11098" />
        </g>
        <rect
           x="205.11501"
           y="438.27899"
           style="fill:#ffffff"
           width="101.761"
           height="29.264999"
           id="rect11104" />
        <path
           style="fill:#5a5553"
           d="m 267.152,474.521 c 0,6.156 -4.989,11.163 -11.154,11.163 v 0 c -6.161,0 -11.153,-5.007 -11.153,-11.163 v -90.604 c 0,-6.164 4.993,-11.153 11.153,-11.153 v 0 c 6.165,0 11.154,4.989 11.154,11.153 z"
           id="path11106" />
        <rect
           x="166.535"
           y="310.8139"
           style="fill:#e9d3c4;opacity:0.4"
           width="178.924"
           height="13.942"
           id="rect17343" />
        <path
           style="fill:#5a5553"
           d="m 202.807,252.316 v 46.567 c 0,19.519 -29.27,57.159 -57.15,79.448 -27.881,22.309 -48.834,40.366 -54.366,44.607 -8.183,6.281 -12.361,17.773 -3.741,28.722 -10.936,-1.612 -17.765,-6.966 -19.034,-20.356 -1.461,-15.332 10.343,-25.355 45.026,-50.175 38.217,-27.368 83.515,-60.821 89.265,-128.813 z"
           id="path11110" />
        <path
           style="fill:#5a5553"
           d="m 309.188,252.316 v 46.567 c 0,19.519 29.278,57.159 57.15,79.448 27.881,22.309 48.838,40.366 54.366,44.607 8.188,6.281 12.361,17.773 3.75,28.722 10.922,-1.612 17.751,-6.966 19.03,-20.356 1.461,-15.332 -10.343,-25.355 -45.026,-50.175 -38.222,-27.368 -83.523,-60.821 -89.27,-128.813 z"
           id="path11112" />
      </g>
      <g
         id="Page-1-6-1"
         stroke="none"
         stroke-width="1"
         fill="none"
         fill-rule="evenodd"
         transform="matrix(4.084099,0,0,4.084099,183.28274,221.20493)">
        <g
           id="icecream-icon-2-2">
          <path
             d="m 17.615553,24.133607 c -2.458151,0.0042 -4.448065,1.99921 -4.445971,4.457364 v 41.951665 c -0.0015,1.180655 0.466058,2.313554 1.299838,3.149472 0.83378,0.835918 1.965478,1.306381 3.146133,1.307892 2.456681,0 4.447868,-1.994984 4.447868,-4.457364 V 28.590971 c 0.0021,-2.458154 -1.987816,-4.45317 -4.445968,-4.457364"
             id="Path-9-9"
             fill="#f7d186"
             fill-rule="nonzero" />
          <path
             d="m 35.462111,18.635051 c 0.0258,-0.558298 0.0258,-1.117489 0,-1.675787 C 35.036514,7.5201398 27.265576,0 17.742852,0 8.2201286,0 0.44919079,7.5201398 0.01979423,16.959264 c -0.02701148,0.577295 -0.02637743,1.155552 0.0019,1.732786 -0.0056999,0.148199 -0.0208998291,0.294498 -0.0208998291,0.444597 v 29.189466 c 0,5.582156 4.5561634991,10.149719 10.1250185991,10.149719 h 15.237879 c 5.566955,0 10.123118,-4.567563 10.123118,-10.149719 V 19.136647 c 0,-0.170999 -0.0171,-0.334397 -0.0247,-0.501596"
             id="path10-1-3"
             fill="#ff9234"
             fill-rule="nonzero" />
          <g
             id="Path-Clipped-2-1"
             transform="translate(0.0882,0.0019)">
            <mask
               id="mask10818-9"
               fill="#ffffff">
              <path
                 d="m 0.01899985,16.957364 c -0.0250624,0.577353 -0.02379443,1.155549 0.0038,1.732787 C 0.01519988,18.838349 0,18.984648 0,19.134747 v 29.189466 c 0,5.582156 4.5561635,10.149719 10.125019,10.149719 h 15.237878 c 5.566955,0 10.125019,-4.567563 10.125019,-10.149719 V 19.134747 c 0,-0.170999 -0.019,-0.334397 -0.0266,-0.501596 0.02766,-0.558238 0.02829,-1.117487 0.0019,-1.675787 C 35.03382,7.5182398 27.262882,0 17.742058,0 8.2193343,0 0.44839641,7.5182398 0.01899985,16.955464 Z"
                 id="use10816-4" />
            </mask>
            <g
               id="g15-7-7" />
            <polygon
               id="polygon17-0-8"
               fill="#ffcd3c"
               fill-rule="nonzero"
               mask="url(#mask-2-3-1-6)"
               points="-10.923013,48.561712 33.084435,4.4478644 46.120231,17.51406 2.1108831,61.627907 " />
          </g>
          <g
             id="g27-9-4"
             transform="translate(0.0882,0.0019)">
            <mask
               id="mask10825-5"
               fill="#ffffff">
              <path
                 d="m 0.01899985,16.957364 c -0.0250624,0.577353 -0.02379443,1.155549 0.0038,1.732787 C 0.01519988,18.838349 0,18.984648 0,19.134747 v 29.189466 c 0,5.582156 4.5561635,10.149719 10.125019,10.149719 h 15.237878 c 5.566955,0 10.125019,-4.567563 10.125019,-10.149719 V 19.134747 c 0,-0.170999 -0.019,-0.334397 -0.0266,-0.501596 0.02766,-0.558238 0.02829,-1.117487 0.0019,-1.675787 C 35.03382,7.5182398 27.262882,0 17.742058,0 8.2193343,0 0.44839641,7.5182398 0.01899985,16.955464 Z"
                 id="use10823-0" />
            </mask>
            <g
               id="g23-3-3" />
            <polygon
               id="polygon25-6-6"
               fill="#f3807b"
               fill-rule="nonzero"
               mask="url(#mask-4-7-7-5)"
               points="-27.181183,32.261742 16.822465,-11.852105 33.044536,4.4060647 -10.962912,48.519912 " />
          </g>
          <g
             id="g36-0-1"
             transform="translate(0.0882,0.0019)">
            <mask
               id="mask10832-0"
               fill="#ffffff">
              <path
                 d="m 0.01899985,16.957364 c -0.0250624,0.577353 -0.02379443,1.155549 0.0038,1.732787 C 0.01519988,18.838349 0,18.984648 0,19.134747 v 29.189466 c 0,5.582156 4.5561635,10.149719 10.125019,10.149719 h 15.237878 c 5.566955,0 10.125019,-4.567563 10.125019,-10.149719 V 19.134747 c 0,-0.170999 -0.019,-0.334397 -0.0266,-0.501596 0.02766,-0.558238 0.02829,-1.117487 0.0019,-1.675787 C 35.03382,7.5182398 27.262882,0 17.742058,0 8.2193343,0 0.44839641,7.5182398 0.01899985,16.955464 Z"
                 id="use10830-6" />
            </mask>
            <g
               id="g32-6-3" />
            <polygon
               id="polygon34-2-2"
               fill="#35d0ba"
               fill-rule="nonzero"
               mask="url(#mask-6-3-2-4)"
               points="2.1545828,61.667807 46.162031,17.55586 59.195926,30.622055 15.188479,74.734002 " />
          </g>
          <polyline
             id="polyline38-6-0"
             fill="#d8ae64"
             fill-rule="nonzero"
             points="14.3760794 58.5252318 22.0900177 66.2581699 22.0900177 58.4606323 14.3760794 58.5252318" />
        </g>
      </g>
    </g>
  </g>
</svg>
