<?xml version="1.0" encoding="UTF-8" standalone="no"?>
<!-- Created with Inkscape (http://www.inkscape.org/) -->

<svg
   width="1280"
   height="640"
   viewBox="0 0 338.66667 169.33332"
   version="1.1"
   id="svg17788"
   inkscape:version="1.1.2 (0a00cf5339, 2022-02-04)"
   sodipodi:docname="crossplane-bootstrapper-github-cover.svg"
   inkscape:export-filename="/home/ahmed/git/devopshive/crossplane-bootstrapper/img/crossplane-bootstrapper-github-cover.png"
   inkscape:export-xdpi="300"
   inkscape:export-ydpi="300"
   xmlns:inkscape="http://www.inkscape.org/namespaces/inkscape"
   xmlns:sodipodi="http://sodipodi.sourceforge.net/DTD/sodipodi-0.dtd"
   xmlns="http://www.w3.org/2000/svg"
   xmlns:svg="http://www.w3.org/2000/svg">
  <sodipodi:namedview
     id="namedview17790"
     pagecolor="#ffffff"
     bordercolor="#000000"
     borderopacity="0.25"
     inkscape:pageshadow="2"
     inkscape:pageopacity="0.0"
     inkscape:pagecheckerboard="0"
     inkscape:document-units="mm"
     showgrid="false"
     inkscape:zoom="0.49260384"
     inkscape:cx="363.37516"
     inkscape:cy="241.57343"
     inkscape:window-width="1920"
     inkscape:window-height="1053"
     inkscape:window-x="0"
     inkscape:window-y="0"
     inkscape:window-maximized="1"
     inkscape:current-layer="layer1"
     fit-margin-top="0"
     fit-margin-left="0"
     fit-margin-right="0"
     fit-margin-bottom="0"
     units="px"
     width="1280px"
     height="640px"
     showguides="true"
     inkscape:guide-bbox="true"
     inkscape:lockguides="true">
    <sodipodi:guide
       position="197.8734,148.82437"
       orientation="0,-1"
       id="guide43412"
       inkscape:locked="true" />
    <sodipodi:guide
       position="20.888747,69.067344"
       orientation="1,0"
       id="guide43414"
       inkscape:locked="true" />
    <sodipodi:guide
       position="173.5665,21.213128"
       orientation="0,-1"
       id="guide43416"
       inkscape:locked="true" />
    <sodipodi:guide
       position="317.88875,50.457371"
       orientation="1,0"
       id="guide43418"
       inkscape:locked="true" />
  </sodipodi:namedview>
  <defs
     id="defs17785">
    <mask
       id="mask-2-3-1"
       fill="#ffffff">
      <path
         d="m 0.01899985,16.957364 c -0.0250624,0.577353 -0.02379443,1.155549 0.0038,1.732787 C 0.01519988,18.838349 0,18.984648 0,19.134747 v 29.189466 c 0,5.582156 4.5561635,10.149719 10.125019,10.149719 h 15.237878 c 5.566955,0 10.125019,-4.567563 10.125019,-10.149719 V 19.134747 c 0,-0.170999 -0.019,-0.334397 -0.0266,-0.501596 0.02766,-0.558238 0.02829,-1.117487 0.0019,-1.675787 C 35.03382,7.5182398 27.262882,0 17.742058,0 8.2193343,0 0.44839641,7.5182398 0.01899985,16.955464 Z"
         id="use12-6-8" />
    </mask>
    <mask
       id="mask-4-7-7"
       fill="#ffffff">
      <path
         d="m 0.01899985,16.957364 c -0.0250624,0.577353 -0.02379443,1.155549 0.0038,1.732787 C 0.01519988,18.838349 0,18.984648 0,19.134747 v 29.189466 c 0,5.582156 4.5561635,10.149719 10.125019,10.149719 h 15.237878 c 5.566955,0 10.125019,-4.567563 10.125019,-10.149719 V 19.134747 c 0,-0.170999 -0.019,-0.334397 -0.0266,-0.501596 0.02766,-0.558238 0.02829,-1.117487 0.0019,-1.675787 C 35.03382,7.5182398 27.262882,0 17.742058,0 8.2193343,0 0.44839641,7.5182398 0.01899985,16.955464 Z"
         id="use20-5-9" />
    </mask>
    <mask
       id="mask-6-3-2"
       fill="#ffffff">
      <path
         d="m 0.01899985,16.957364 c -0.0250624,0.577353 -0.02379443,1.155549 0.0038,1.732787 C 0.01519988,18.838349 0,18.984648 0,19.134747 v 29.189466 c 0,5.582156 4.5561635,10.149719 10.125019,10.149719 h 15.237878 c 5.566955,0 10.125019,-4.567563 10.125019,-10.149719 V 19.134747 c 0,-0.170999 -0.019,-0.334397 -0.0266,-0.501596 0.02766,-0.558238 0.02829,-1.117487 0.0019,-1.675787 C 35.03382,7.5182398 27.262882,0 17.742058,0 8.2193343,0 0.44839641,7.5182398 0.01899985,16.955464 Z"
         id="use29-5-0" />
    </mask>
    <mask
       id="mask-2-3-1-6"
       fill="#ffffff">
      <path
         d="m 0.01899985,16.957364 c -0.0250624,0.577353 -0.02379443,1.155549 0.0038,1.732787 C 0.01519988,18.838349 0,18.984648 0,19.134747 v 29.189466 c 0,5.582156 4.5561635,10.149719 10.125019,10.149719 h 15.237878 c 5.566955,0 10.125019,-4.567563 10.125019,-10.149719 V 19.134747 c 0,-0.170999 -0.019,-0.334397 -0.0266,-0.501596 0.02766,-0.558238 0.02829,-1.117487 0.0019,-1.675787 C 35.03382,7.5182398 27.262882,0 17.742058,0 8.2193343,0 0.44839641,7.5182398 0.01899985,16.955464 Z"
         id="use12-6-8-1" />
    </mask>
    <mask
       id="mask-4-7-7-5"
       fill="#ffffff">
      <path
         d="m 0.01899985,16.957364 c -0.0250624,0.577353 -0.02379443,1.155549 0.0038,1.732787 C 0.01519988,18.838349 0,18.984648 0,19.134747 v 29.189466 c 0,5.582156 4.5561635,10.149719 10.125019,10.149719 h 15.237878 c 5.566955,0 10.125019,-4.567563 10.125019,-10.149719 V 19.134747 c 0,-0.170999 -0.019,-0.334397 -0.0266,-0.501596 0.02766,-0.558238 0.02829,-1.117487 0.0019,-1.675787 C 35.03382,7.5182398 27.262882,0 17.742058,0 8.2193343,0 0.44839641,7.5182398 0.01899985,16.955464 Z"
         id="use20-5-9-5" />
    </mask>
    <mask
       id="mask-6-3-2-4"
       fill="#ffffff">
      <path
         d="m 0.01899985,16.957364 c -0.0250624,0.577353 -0.02379443,1.155549 0.0038,1.732787 C 0.01519988,18.838349 0,18.984648 0,19.134747 v 29.189466 c 0,5.582156 4.5561635,10.149719 10.125019,10.149719 h 15.237878 c 5.566955,0 10.125019,-4.567563 10.125019,-10.149719 V 19.134747 c 0,-0.170999 -0.019,-0.334397 -0.0266,-0.501596 0.02766,-0.558238 0.02829,-1.117487 0.0019,-1.675787 C 35.03382,7.5182398 27.262882,0 17.742058,0 8.2193343,0 0.44839641,7.5182398 0.01899985,16.955464 Z"
         id="use29-5-0-7" />
    </mask>
  </defs>
  <g
     inkscape:label="Layer 1"
     inkscape:groupmode="layer"
     id="layer1"
     transform="translate(-238.00197,-73.550553)">
    <g
       id="g47688"
       transform="matrix(0.28323124,0,0,0.28323208,214.44714,272.97951)">
      <rect
         style="display:inline;fill:#fffdf3;fill-opacity:1;stroke:none;stroke-width:7.01376;stroke-miterlimit:4;stroke-dasharray:none;stroke-opacity:1"
         id="rect5714"
         width="1195.725"
         height="597.86072"
         x="83.164665"
         y="-704.11853"
         inkscape:export-filename="dynamic-devops-roadmap-banner-wide.png"
         inkscape:export-xdpi="123.86"
         inkscape:export-ydpi="123.86" />
    </g>
    <g
       id="g3273"
       style="display:inline;opacity:0.125"
       transform="translate(1707.0819,-758.62182)">
      <g
         transform="matrix(0.01954177,0,0,-0.02031603,-1534.0935,970.32605)"
         fill="#000000"
         stroke="none"
         id="g27699-7-0"
         style="display:inline;fill:#ffea98;fill-opacity:1"
         inkscape:export-filename="dynamic-devops-roadmap-banner.png"
         inkscape:export-xdpi="123.86"
         inkscape:export-ydpi="123.86">
        <path
           d="m 8856.3588,7165.1064 -150,-258 -299,-3 -299,-3 -150,-259 -150,-260 -294,-2 -293,-3 -150,-257 -150,-258 -187,1 c -102,1 -230,4 -284,8 l -98,6 -143,250 -143,250 -299,3 -299,3 -148,260 -149,259 h -306 -307 l -150,-260 -150,-259 -299,-3 -300,-3 -153,-263 -153,-263 153,-267 153,-267 299,-3 300,-3 120,-211 c 66,-116 131,-231 144,-254 l 24,-43 -138,-238 c -76,-131 -144,-245 -152,-253 -12,-13 -55,-14 -296,-11 l -282,3 -151,-259 -150,-258 -299,-5 -299,-5 -153,-260 c -84,-143 -151,-265 -150,-271 1,-6 69,-129 152,-273 l 150,-261 h 297 296 l 141,-246 c 78,-136 141,-250 141,-254 0,-5 -64,-118 -141,-251 -78,-133 -144,-249 -146,-258 -2,-9 63,-133 145,-276 l 150,-260 298,-5 299,-5 146,-253.99996 146,-254.99991 -85,-144.99995 c -46,-79.99997 -113,-195.99997 -149,-257.99997 l -65,-111 153,-265.99996 153,-266 h 297 296 l 149,-260.00001 148,-260.00003 h 311 310 l 140,242.00002 c 77,133.00002 147,250.00002 155,261.00002 15,18 27,18 295,10 l 279,-8 145,-253.00001 144,-252.00003 h 297 297 l 149,-260.00001 148,-260.0001 h 307 307 l 152,260.0001 152,260.00001 h 296 297 l 150,260.00003 150,259.00001 281.0002,1 h 281 l 149,-260.00001 148,-260.00003 h 297 298 l 148,-260.00001 148,-260.0001 309,2 310,3 150,258.0001 150,257.00001 h 297 296 l 151,260.00003 c 84,143.00001 152,266.00001 151,272.00001 0,7 -67,128 -148,268 l -147,254.99996 -115,6 c -63,4 -198,7 -300,8 l -186,1 -147,257 c -108,187.99994 -145,260.99991 -139,273.99991 4,8.99999 69,119.99995 143,247.99991 l 135,230.99997 h 297 296 l 152,260 152,260 295,2 296,3 150,259 151,259 294,-4 295,-4 149,255 c 82,140 152,260 154,266 3,7 -63,132 -147,278 l -152,266 h -296 -296 l -150,260 -150,260 h -310 l -310,-1 -150,-259 -150,-260 h -166 c -91,0 -220,3 -287,7 l -121,6 -148,258 -148,259 h -297 -296 l -142,247 -141,248 18,31 c 10,17 74,128 143,247 l 125,216 310,1 h 310 l 153,265 153,264 -151,264 -152,265 -306,7 c -278,7 -307,6 -318,-9 -6,-9 -74,-125 -150,-256 l -139,-240 -299,2 -299,3 -143,250 c -79,138 -144,252 -144,255 0,3 67,120 148,260 l 149,254 -152,265 -152,266 -299,3 -299.0002,2 -148,260 -148,260 h -308 -308 z m 886,-19 c 77,-135 141,-251 141,-256 0,-10 -257,-457 -283,-491 -11,-15 -38,-16 -296,-9 l -285,7 -142,247 -141,247 145,251 145,250 h 287 287 z m -4689,-284 h 105 l 112,-198 c 62,-108 126,-220 142,-247 l 29,-50 -147,-250 -146,-250 -281,-3 c -258,-2 -282,-1 -296,15 -30,35 -279,483 -276,497 2,7 66,122 143,256 l 140,242 185,-6 c 102,-3 232,-6 290,-6 z m 3797,-243 143,-249 -144,-246 -143,-247 h -287 -287 l -145,251 -144,250 143,247 142,246 290,-2 290,-2 z m 1784.0002,6 c 78,-137 142,-252 142,-258 0,-5 -65,-121 -144,-257 l -143,-247 -286,6 c -244.0002,5 -287.0002,8 -298.0002,21 -7,9 -71,119 -143,245 -117,203 -130,231 -121,252 13,29 261,455 275,473 7,9 78,12 292.0002,12 h 283 z m -6234.0002,-523 c 78,-135 140,-251 137,-259 -3,-8 -66,-122 -142,-252 l -137,-238 -290,-1 h -290 l -144,250 -143,250 77,132 c 43,73 109,186 147,251 l 69,117 287,-2 287,-3 z m 1786,0 c 121,-212 137,-245 128,-264 -7,-12 -74,-127 -149,-256 l -138,-235 -277,-2 -277,-2 -24,37 c -35,54 -266,460 -266,468 0,5 58,106 238,413 l 55,94 285,-5 286,-5 z m 1774,-6 144,-251 -143,-246 -143,-247 -290,3 -289,2 -143,249 -142,250 18,30 c 18,29 130,221 230,394 l 42,72 286,-2 286,-3 z m 1778,10 c 77,-135 140,-251 140,-259 0,-7 -63,-122 -140,-254 l -140,-241 h -287 -286 l -142,247 c -83,145 -139,255 -137,265 3,9 67,123 142,253 l 137,235 h 287 286 z m -4455,-510 c 74,-130 139,-245 144,-255 7,-14 -23,-73 -134,-264 l -143,-245 h -291 -292 l -138,243 c -77,133 -139,247 -139,252 0,6 64,122 144,258 l 144,247 h 285 285 z m 1787,-14 142,-249 -145,-251 -146,-250 h -282 -281 l -143,250 -143,249 92,158 c 50,87 116,200 146,251 l 54,92 h 282 l 282,-1 z m 1781,-6 143,-252 -143,-246 -143,-246 -289,3 -289,2 -139,243 c -76,134 -138,249 -136,257 2,7 66,121 143,254 l 140,241 285,-2 284,-3 z m 1559.0002,247 93,-6 140,-244 140,-243 -147,-254 -148,-254 -215,1 c -118,1 -248,4 -287.0002,8 l -73,6 -141,245 c -121,211 -139,247 -130,267 12,27 260,453 274,471 10,13 318.0002,16 494.0002,3 z m 2033,-262 143,-250 -19,-33 c -10,-18 -75,-130 -144,-249 l -125,-216 -290,-1 h -291 l -143,251 c -110,192 -141,255 -135,268 5,10 70,122 144,250 l 135,231 h 291 292 z m -6655.0002,-259 h 253 l 141,-248 c 77,-136 141,-252 141,-256 0,-5 -64,-119 -141,-253 l -141,-243 -286,2 -286,3 -144,252 -144,252 92,158 c 224,382 199,346 232,339 17,-3 144,-6 283,-6 z m 2173,-241 143,-251 -61,-107 c -34,-58 -99,-170 -144,-248 l -81,-142 -285,-1 h -285 l -142,250 c -79,137 -143,255 -143,261 0,5 32,64 70,130 39,65 102,173 140,239 l 71,120 h 287 287 z m 1782,1 c 111,-195 141,-255 134,-269 -5,-10 -70,-122 -144,-250 l -135,-231 h -285 -286 l -143,250 c -78,138 -141,254 -139,259 2,5 66,117 143,250 l 140,241 h 286 287 z m 1777.0002,15 c 73,-126 137,-240 144,-251 10,-19 -6,-51 -132,-268 l -144,-246 h -291 -292 l -141,248 -141,249 146,251 147,252 286,-2 286,-3 z m -6227.0002,-535 c 88,-155 140,-256 136,-266 -9,-23 -267,-467 -280,-481 -9,-10 -77,-11 -291,-6 l -280,6 -120,210 c -66,116 -131,229 -144,253 l -23,42 143,246 144,246 h 286 287 z m 1531,240 h 107 l 141,-246 c 78,-135 139,-249 138,-252 -2,-4 -68,-118 -147,-255 l -143,-247 -280,2 -279,3 -144,249 c -78,138 -141,252 -140,255 43,76 265,454 279,475 l 21,29 170,-6 c 94,-4 219,-7 277,-7 z m 2028,-241 c 133,-232 142,-253 132,-277 -7,-14 -71,-126 -142,-249 l -131,-223 h -288 -288 l -142,250 c -78,137 -140,253 -138,258 1,5 66,118 143,250 l 140,242 h 285 285 z m 1771.0002,19 c 74,-128 138,-240 143,-249 7,-11 -27,-77 -136,-265 l -145,-249 -283,-3 -284.0002,-2 -140,246 c -77,135 -140,251 -140,257 0,7 63,121 140,254 l 140,242 286.0002,1 h 286 z m -4455.0002,-510 c 70,-123 135,-237 146,-253 l 18,-30 -143,-245 -142,-245 h -289 -289 l -143,249 -143,249 136,236 c 76,130 142,242 147,249 7,9 78,12 292,12 h 283 z m 1795,-28 143,-250 -63,-108 c -34,-59 -99,-171 -144,-249 l -81,-142 h -285 -285 l -139,244 c -76,134 -139,247 -140,250 0,3 64,118 144,256 l 145,249 h 281 282 z m 1773,10 c 75,-132 138,-243 139,-248 2,-5 -62,-122 -142,-260 l -145,-251 -280,-1 h -280 l -144,249 -143,250 93,158 c 50,87 116,200 146,251 l 54,92 h 282 283 z m 1787.0002,-6 c 78,-135 139,-251 137,-257 -3,-7 -68,-120 -145,-252 l -140,-240 h -287 -287 l -139,240 c -77,132 -138,247 -137,256 2,9 66,125 143,257 l 140,242 h 286 287 z m -7147.0002,41 c 60,-104 124,-217 142,-250 l 34,-60 -143,-245 -142,-245 -286,-3 -286,-2 -123,212 c -67,117 -132,231 -145,253 l -23,40 122,210 c 67,116 132,227 144,248 l 23,37 287,-2 287,-3 z m 6113.0002,-318 c 14,-18 277,-485 277,-492 0,-12 -270,-474 -288,-494 -11,-11 -62,-12 -289,-6 l -275.0002,8 -141,244 -140,244 126,217 c 69,119 137,234 151,256 l 25,39 277.0002,-8 c 152,-4 277,-8 277,-8 z m 1786,-6 c 18,-17 279,-484 276,-495 -2,-7 -66,-121 -143,-254 l -140,-242 -289,3 -289,2 -143,250 -143,250 19,30 c 10,16 73,125 140,240 67,116 126,215 131,221 9,11 568,7 581,-5 z m -9000.0002,3 105,-7 138,-241 c 76,-133 138,-245 138,-251 0,-5 -65,-122 -144,-258 l -144,-248 -283,2 -283,1 -24,37 c -12,20 -78,132 -145,250 -107,187 -121,217 -111,237 12,28 260,454 274,472 11,13 292,17 479,6 z m 3672,-31 c 14,-21 81,-136 149,-256 l 124,-218 -145,-249 -146,-250 h -85 c -47,0 -177,3 -287,7 l -202,6 -141,248 -142,249 92,157 c 50,87 116,200 146,251 l 54,92 h 279 280 z m 1905,-209 c 78,-136 141,-251 141,-256 0,-5 -64,-120 -142,-254 l -142,-244 -286,2 -285,3 -132,230 c -73,127 -137,240 -144,251 -10,19 6,51 132,268 l 144,246 h 287 286 z m 5350.0002,-4 142,-250 -144,-248 -144,-247 -289,-2 -289,-3 -143,250 c -127,224 -141,253 -131,273 23,42 262,452 272,465 7,9 79,12 296,12 h 287 z m -8906.0002,-3 c 75,-133 137,-247 137,-252 0,-6 -65,-120 -144,-255 l -143,-245 -281,-3 -280,-2 -141,246 c -78,135 -141,251 -141,257 0,6 64,120 141,254 l 142,243 h 286 l 286,-1 z m 6223.0002,-513 145,-252 -148,-252 -147,-253 -65,7 c -36,3 -164,6 -283,6 h -216 l -143,248 c -78,136 -142,252 -142,257 0,6 45,87 100,180 54,94 118,203 142,243 l 42,72 285,-2 285,-3 z m -7375.0002,239 126,-6 138,-240 c 76,-132 138,-245 138,-251 0,-13 -269,-475 -286,-493 -9,-9 -82,-10 -294,-6 l -283,6 -140,244 c -78,135 -140,248 -138,252 2,4 68,118 147,254 l 144,247 h 161 c 89,0 218,-3 287,-7 z m 2036,-233 c 75,-129 138,-243 140,-252 3,-10 -53,-117 -138,-263 l -143,-245 h -286 l -285,1 -139,244 c -87,154 -136,251 -132,261 5,14 238,418 272,472 l 15,22 280,-2 280,-3 z m 1782,-10 143,-251 -149,-255 -148,-256 -74,6 c -41,3 -167,6 -280,6 h -206 l -140,246 c -77,136 -139,251 -137,257 2,5 67,120 145,253 l 142,244 h 280 281 z m 1759,30 c 68,-118 133,-232 144,-252 l 21,-36 -143,-246 -142,-246 h -287 -287 l -143,250 c -78,138 -141,254 -139,259 2,5 66,117 143,250 l 140,241 284,-2 285,-3 z m 3583.0002,-25 c 76,-132 139,-246 139,-253 0,-7 -64,-122 -142,-257 l -143,-245 h -285 -285 l -135,236 c -74,130 -139,245 -144,255 -7,14 23,73 134,264 l 143,245 290,-2 289,-3 z m 1787,-2 c 78,-137 142,-252 142,-256 0,-5 -64,-118 -142,-253 l -143,-244 h -290 l -290,1 -142,249 -141,250 145,250 146,250 h 287 286 z m -6239.0002,-518 c 78,-134 141,-248 141,-252 0,-4 -65,-118 -143,-253 l -143,-245 -281,-3 -281,-2 -141,245 c -78,134 -141,249 -141,255 0,11 64,124 220,390 l 68,115 280,-3 281,-3 z m -3557,-9 145,-253 -143,-244 -142,-244 -288,-2 -289,-3 -142,249 -143,249 147,251 146,251 h 282 282 z m 1752,54 c 62,-107 126,-220 143,-250 l 32,-55 -143,-245 -142,-245 h -289 -289 l -143,249 c -124,217 -141,251 -131,270 22,42 261,451 271,464 7,9 74,12 295,10 l 285,-3 z m 3583.0002,-50 142,-250 -146,-250 -145,-250 h -282 -281.0002 l -143,251 -143,251 77,131 c 42,73 108,185 146,250 l 69,117 h 282.0002 l 282,-1 z m 1783,3 c 77,-136 139,-252 138,-258 -2,-7 -66,-121 -143,-253 l -140,-242 h -286 -286 l -145,253 -144,253 113,195 c 63,107 127,218 143,247 l 30,52 h 289 289 z m 1787,-7 142,-249 -143,-246 -144,-246 -288,-2 -289,-3 -140,246 c -77,135 -140,250 -140,257 0,7 63,121 140,254 l 140,243 289,-3 290,-2 z m -4595.0002,-275 c 13,-12 278,-481 278,-492 0,-6 -64,-121 -142,-255 l -142,-244 h -282 -282 l -147,256 -146,255 137,237 c 76,130 141,242 145,248 9,11 568,7 581,-5 z m 1905.0002,-216 c 73,-126 137,-239 143,-250 9,-18 -10,-56 -136,-274 l -147,-253 -280,4 -279,3 -143,250 c -127,220 -142,251 -132,270 7,12 73,126 147,254 l 135,233 280,-4 280,-3 z m -7105.0002,-23 c 76,-134 138,-249 136,-256 -2,-7 -66,-122 -143,-254 l -140,-242 -289,3 -289,2 -143,250 c -128,223 -142,252 -130,270 7,11 72,122 145,248 l 133,227 290,-2 291,-3 z m 1763,26 c 70,-123 135,-237 145,-253 l 19,-30 -143,-245 -143,-245 -289,-2 -289,-3 -142,250 -143,249 146,250 146,251 h 283 283 z m 1580,216 80,-7 143,-250 142,-250 -143,-246 -143,-246 -200,-3 c -109,-1 -239,1 -289,5 l -89,8 -142,247 -141,247 146,250 145,251 h 206 c 113,0 241,-3 285,-6 z m 5536.0002,-206 c 67,-117 132,-231 144,-253 l 23,-40 -145,-247 -144,-248 h -288 -287 l -143,250 c -78,138 -141,254 -139,259 2,5 66,117 143,250 l 140,241 h 287 286 z m -873,-553 c 124,-215 142,-252 133,-272 -17,-38 -263,-456.99989 -276,-471.99988 -10,-11 -63,-12 -292,-6 l -279,8 -135,234.99991 c -73,128.99997 -138,241.99997 -142,251.99997 -7,13 27,78 135,264 l 143,246 285,-3 285,-2 z m -7111.0002,-10 c 129,-225 141,-251 129,-270 -7,-11 -72,-122 -145,-246.99996 l -133,-227.99992 h -288 -288 l -141,245.99991 c -78,135.99997 -141,249.99997 -141,254.99997 0,5 64,120 143,254 l 142,245 289,-3 290,-2 z m 1781,4 143,-251 -144,-245.99997 -144,-246.99991 -285,-3 -286,-2 -142,246.99991 c -83,144.99997 -139,254.99997 -137,264.99997 3,9 67,123 142,253 l 137,235 h 287 l 286,-1 z m 1771,5 c 78,-136 141,-251 141,-258 0,-6 -64,-120 -143,-253.99996 l -142,-242.99992 -280,1 c -154,0 -283,4 -287,8 -3,4 -68,113.99996 -143,244.99991 -82,142.99997 -134,243.99997 -131,253.99997 6,13 239,418 272,471 14,22 15,22 293,22 h 279 z m 1783.0002,-9 146,-255 -142,-242.99997 -142,-241.99991 h -289 -289.0002 l -143,248.99991 c -78,136.99997 -141,251.99997 -139,254.99997 5,9 139,239 216,371 l 71,120 h 282.0002 283 z m -4444.0002,-520.99996 143,-251.99991 -143,-245.99991 -143,-246.00001 -289,3 -289,2 -143,248 -142,248.99992 27,45.99998 c 15,25.99999 80,137.99995 145,249.99991 l 118,201.99998 286,-2 286,-3 z m 1780,6 142,-250.99991 -144,-246.99992 -144,-247 -284,-3 -285,-2 -139,242.00001 c -76,132.99995 -140,247.99991 -142,254.99991 -2,8 60,123.99995 139,257.99991 l 142,244.99996 h 286 286 z m 1777,3 c 77,-135.99995 139,-250.99991 137,-256.99991 -2,-6 -67,-119.99996 -145,-252.99991 l -141,-243.00001 h -282 -282 l -142,247.00001 c -77,135.99995 -138,252.99991 -135,260.9999 5,13 240,419.99988 271,469.99988 14,22 15,22 297,22 l 282,-1 z m 1778.0002,-8 145,-253.99991 -142,-242.99991 -141,-243.00001 h -289 -288 l -139,240.00001 c -76,131.99995 -138,245.99991 -139,252.99991 0,8 64,123.99995 142,257.99991 l 142,243.99996 h 282 281 z m -6226.0002,-514.99982 143,-250.00001 -146,-249.99996 -146,-250 h -287 -287 l -143,251 c -110,191.999965 -141,254.99996 -135,267.99996 5,10 70,122 144,250.00001 l 135,230.99991 h 290 290 z m 1779,-1 141,-245.00001 -146,-251.99996 -146,-252 -284,3 -284,2 -139,243 c -76,133.99998 -138,248.99996 -136,255.99996 2,7 66,121 143,254.00001 l 140,241.99991 285,-2.99999 285,-2 z m 1781,-3 142,-249.00001 -24,-40.999995 c -13,-22.999995 -78,-132.999975 -143,-245.999965 l -120,-205 h -288 -288 l -142,248 -142,247.99996 146,250.00001 145,248.99991 286,-1.99999 285,-3 z m 1778.0002,8 c 77,-136.00001 139,-251.00001 137,-257.00001 -2,-5 -67,-118.99998 -144,-252.99996 l -142,-244 h -282 -282.0002 l -133,233 c -73,126.9999797 -139,240.99996 -146,251.99996 -11,19 0,43 118,245.00002 72,123.99996 137,234.99992 145,247.99991 14,21.99999 15,21.99999 302.0002,21.99999 h 287 z m 1786,1 c 76,-132.00001 138,-245.00001 138,-250.00001 1,-6 -63,-120.999985 -142,-254.99996 l -142,-245 h -289 -289 l -138,240 c -76,131.9999797 -138,245.99996 -138,252.99996 -1,7 63,123 141,258.00001 l 142,243.99991 289,-1.99999 290,-3 z m -897,-517.99997 c 77,-133 139,-247 139,-252 0,-6 -64,-122 -143,-258.00001 l -144,-247.00003 h -285 -286 l -143,250.00003 c -128,225.00001 -142,252.00001 -131,272.00001 31,59 263,454.999965 275,467.99996 11,13 54,15 296,12 l 283,-3 z m -5335.0002,-8 144,-251 -19,-33 c -10,-17 -75,-129 -144,-248.00002 l -125,-216.00002 h -290 l -290,-1 -143,250.00003 -143,249.00001 92,158 c 50,87 116,199.999984 146,250.999975 l 54,91.999985 h 287 287 z m 1776,5 c 77,-135 140,-248 139,-251 0,-3 -65,-117 -145,-254.00001 l -144,-249.00003 -281,1 c -252,0 -283,2 -296,17 -15,18 -266,454.00004 -270,471.00004 -2,5 62,122 142,260 l 145,250.99996 h 285 285 z m 1780,-2 c 77,-135 140,-251 140,-258 0,-6 -63,-120 -140,-253.00001 l -140,-241.00003 -289,2 -289,3 -142,249.00003 -143,249.00001 62,106 c 34,58 100,170 145,248.999984 l 83,141.999976 286,-1 h 287 z m 3571.0002,-5 141,-248 -145,-249.00001 -145,-250.00003 h -288 -287 l -141,246.00003 c -78,136.00001 -141,251.00001 -141,256.00001 0,5 64,120 142,254 l 142,243.99996 290,-2 290,-3 z m -4726.0002,-263 126,-7 142,-247.00001 142,-248.00003 -146,-251.00001 -146,-251.0001 -171,1 c -95,1 -226,4 -291,8 l -120,6 -138,240.0001 c -75,132 -138,243.00001 -138,248.00001 0,4 66,120 146,257.00003 l 146,250.00001 h 161 c 89,0 218,-3 287,-6 z m 3525.0002,-4 h 161 l 143,-250.00001 143,-250.00003 -145,-248.00001 -144,-247.0001 -286,-3 -287,-2 -23,37 c -63,99 -267,465.00011 -264,471.00011 2,4 69,119.00001 148,256.00003 l 144,249.00001 125,-7 c 69,-3 197,-6 285,-6 z"
           id="path27697-5-6"
           style="fill:#ffea98;fill-opacity:1" />
      </g>
      <g
         transform="matrix(0.01954177,0,0,-0.02031603,-1394.9655,885.78729)"
         fill="#000000"
         stroke="none"
         id="g3261"
         style="display:inline;fill:#ffea98;fill-opacity:1"
         inkscape:export-filename="dynamic-devops-roadmap-banner.png"
         inkscape:export-xdpi="123.86"
         inkscape:export-ydpi="123.86">
        <path
           d="m 8856.3588,7165.1064 -150,-258 -299,-3 -299,-3 -150,-259 -150,-260 -294,-2 -293,-3 -150,-257 -150,-258 -187,1 c -102,1 -230,4 -284,8 l -98,6 -143,250 -143,250 -299,3 -299,3 -148,260 -149,259 h -306 -307 l -150,-260 -150,-259 -299,-3 -300,-3 -153,-263 -153,-263 153,-267 153,-267 299,-3 300,-3 120,-211 c 66,-116 131,-231 144,-254 l 24,-43 -138,-238 c -76,-131 -144,-245 -152,-253 -12,-13 -55,-14 -296,-11 l -282,3 -151,-259 -150,-258 -299,-5 -299,-5 -153,-260 c -84,-143 -151,-265 -150,-271 1,-6 69,-129 152,-273 l 150,-261 h 297 296 l 141,-246 c 78,-136 141,-250 141,-254 0,-5 -64,-118 -141,-251 -78,-133 -144,-249 -146,-258 -2,-9 63,-133 145,-276 l 150,-260 298,-5 299,-5 146,-253.99996 146,-254.99991 -85,-144.99995 c -46,-79.99997 -113,-195.99997 -149,-257.99997 l -65,-111 153,-265.99996 153,-266 h 297 296 l 149,-260.00001 148,-260.00003 h 311 310 l 140,242.00002 c 77,133.00002 147,250.00002 155,261.00002 15,18 27,18 295,10 l 279,-8 145,-253.00001 144,-252.00003 h 297 297 l 149,-260.00001 148,-260.0001 h 307 307 l 152,260.0001 152,260.00001 h 296 297 l 150,260.00003 150,259.00001 281.0002,1 h 281 l 149,-260.00001 148,-260.00003 h 297 298 l 148,-260.00001 148,-260.0001 309,2 310,3 150,258.0001 150,257.00001 h 297 296 l 151,260.00003 c 84,143.00001 152,266.00001 151,272.00001 0,7 -67,128 -148,268 l -147,254.99996 -115,6 c -63,4 -198,7 -300,8 l -186,1 -147,257 c -108,187.99994 -145,260.99991 -139,273.99991 4,8.99999 69,119.99995 143,247.99991 l 135,230.99997 h 297 296 l 152,260 152,260 295,2 296,3 150,259 151,259 294,-4 295,-4 149,255 c 82,140 152,260 154,266 3,7 -63,132 -147,278 l -152,266 h -296 -296 l -150,260 -150,260 h -310 l -310,-1 -150,-259 -150,-260 h -166 c -91,0 -220,3 -287,7 l -121,6 -148,258 -148,259 h -297 -296 l -142,247 -141,248 18,31 c 10,17 74,128 143,247 l 125,216 310,1 h 310 l 153,265 153,264 -151,264 -152,265 -306,7 c -278,7 -307,6 -318,-9 -6,-9 -74,-125 -150,-256 l -139,-240 -299,2 -299,3 -143,250 c -79,138 -144,252 -144,255 0,3 67,120 148,260 l 149,254 -152,265 -152,266 -299,3 -299.0002,2 -148,260 -148,260 h -308 -308 z m 886,-19 c 77,-135 141,-251 141,-256 0,-10 -257,-457 -283,-491 -11,-15 -38,-16 -296,-9 l -285,7 -142,247 -141,247 145,251 145,250 h 287 287 z m -4689,-284 h 105 l 112,-198 c 62,-108 126,-220 142,-247 l 29,-50 -147,-250 -146,-250 -281,-3 c -258,-2 -282,-1 -296,15 -30,35 -279,483 -276,497 2,7 66,122 143,256 l 140,242 185,-6 c 102,-3 232,-6 290,-6 z m 3797,-243 143,-249 -144,-246 -143,-247 h -287 -287 l -145,251 -144,250 143,247 142,246 290,-2 290,-2 z m 1784.0002,6 c 78,-137 142,-252 142,-258 0,-5 -65,-121 -144,-257 l -143,-247 -286,6 c -244.0002,5 -287.0002,8 -298.0002,21 -7,9 -71,119 -143,245 -117,203 -130,231 -121,252 13,29 261,455 275,473 7,9 78,12 292.0002,12 h 283 z m -6234.0002,-523 c 78,-135 140,-251 137,-259 -3,-8 -66,-122 -142,-252 l -137,-238 -290,-1 h -290 l -144,250 -143,250 77,132 c 43,73 109,186 147,251 l 69,117 287,-2 287,-3 z m 1786,0 c 121,-212 137,-245 128,-264 -7,-12 -74,-127 -149,-256 l -138,-235 -277,-2 -277,-2 -24,37 c -35,54 -266,460 -266,468 0,5 58,106 238,413 l 55,94 285,-5 286,-5 z m 1774,-6 144,-251 -143,-246 -143,-247 -290,3 -289,2 -143,249 -142,250 18,30 c 18,29 130,221 230,394 l 42,72 286,-2 286,-3 z m 1778,10 c 77,-135 140,-251 140,-259 0,-7 -63,-122 -140,-254 l -140,-241 h -287 -286 l -142,247 c -83,145 -139,255 -137,265 3,9 67,123 142,253 l 137,235 h 287 286 z m -4455,-510 c 74,-130 139,-245 144,-255 7,-14 -23,-73 -134,-264 l -143,-245 h -291 -292 l -138,243 c -77,133 -139,247 -139,252 0,6 64,122 144,258 l 144,247 h 285 285 z m 1787,-14 142,-249 -145,-251 -146,-250 h -282 -281 l -143,250 -143,249 92,158 c 50,87 116,200 146,251 l 54,92 h 282 l 282,-1 z m 1781,-6 143,-252 -143,-246 -143,-246 -289,3 -289,2 -139,243 c -76,134 -138,249 -136,257 2,7 66,121 143,254 l 140,241 285,-2 284,-3 z m 1559.0002,247 93,-6 140,-244 140,-243 -147,-254 -148,-254 -215,1 c -118,1 -248,4 -287.0002,8 l -73,6 -141,245 c -121,211 -139,247 -130,267 12,27 260,453 274,471 10,13 318.0002,16 494.0002,3 z m 2033,-262 143,-250 -19,-33 c -10,-18 -75,-130 -144,-249 l -125,-216 -290,-1 h -291 l -143,251 c -110,192 -141,255 -135,268 5,10 70,122 144,250 l 135,231 h 291 292 z m -6655.0002,-259 h 253 l 141,-248 c 77,-136 141,-252 141,-256 0,-5 -64,-119 -141,-253 l -141,-243 -286,2 -286,3 -144,252 -144,252 92,158 c 224,382 199,346 232,339 17,-3 144,-6 283,-6 z m 2173,-241 143,-251 -61,-107 c -34,-58 -99,-170 -144,-248 l -81,-142 -285,-1 h -285 l -142,250 c -79,137 -143,255 -143,261 0,5 32,64 70,130 39,65 102,173 140,239 l 71,120 h 287 287 z m 1782,1 c 111,-195 141,-255 134,-269 -5,-10 -70,-122 -144,-250 l -135,-231 h -285 -286 l -143,250 c -78,138 -141,254 -139,259 2,5 66,117 143,250 l 140,241 h 286 287 z m 1777.0002,15 c 73,-126 137,-240 144,-251 10,-19 -6,-51 -132,-268 l -144,-246 h -291 -292 l -141,248 -141,249 146,251 147,252 286,-2 286,-3 z m -6227.0002,-535 c 88,-155 140,-256 136,-266 -9,-23 -267,-467 -280,-481 -9,-10 -77,-11 -291,-6 l -280,6 -120,210 c -66,116 -131,229 -144,253 l -23,42 143,246 144,246 h 286 287 z m 1531,240 h 107 l 141,-246 c 78,-135 139,-249 138,-252 -2,-4 -68,-118 -147,-255 l -143,-247 -280,2 -279,3 -144,249 c -78,138 -141,252 -140,255 43,76 265,454 279,475 l 21,29 170,-6 c 94,-4 219,-7 277,-7 z m 2028,-241 c 133,-232 142,-253 132,-277 -7,-14 -71,-126 -142,-249 l -131,-223 h -288 -288 l -142,250 c -78,137 -140,253 -138,258 1,5 66,118 143,250 l 140,242 h 285 285 z m 1771.0002,19 c 74,-128 138,-240 143,-249 7,-11 -27,-77 -136,-265 l -145,-249 -283,-3 -284.0002,-2 -140,246 c -77,135 -140,251 -140,257 0,7 63,121 140,254 l 140,242 286.0002,1 h 286 z m -4455.0002,-510 c 70,-123 135,-237 146,-253 l 18,-30 -143,-245 -142,-245 h -289 -289 l -143,249 -143,249 136,236 c 76,130 142,242 147,249 7,9 78,12 292,12 h 283 z m 1795,-28 143,-250 -63,-108 c -34,-59 -99,-171 -144,-249 l -81,-142 h -285 -285 l -139,244 c -76,134 -139,247 -140,250 0,3 64,118 144,256 l 145,249 h 281 282 z m 1773,10 c 75,-132 138,-243 139,-248 2,-5 -62,-122 -142,-260 l -145,-251 -280,-1 h -280 l -144,249 -143,250 93,158 c 50,87 116,200 146,251 l 54,92 h 282 283 z m 1787.0002,-6 c 78,-135 139,-251 137,-257 -3,-7 -68,-120 -145,-252 l -140,-240 h -287 -287 l -139,240 c -77,132 -138,247 -137,256 2,9 66,125 143,257 l 140,242 h 286 287 z m -7147.0002,41 c 60,-104 124,-217 142,-250 l 34,-60 -143,-245 -142,-245 -286,-3 -286,-2 -123,212 c -67,117 -132,231 -145,253 l -23,40 122,210 c 67,116 132,227 144,248 l 23,37 287,-2 287,-3 z m 6113.0002,-318 c 14,-18 277,-485 277,-492 0,-12 -270,-474 -288,-494 -11,-11 -62,-12 -289,-6 l -275.0002,8 -141,244 -140,244 126,217 c 69,119 137,234 151,256 l 25,39 277.0002,-8 c 152,-4 277,-8 277,-8 z m 1786,-6 c 18,-17 279,-484 276,-495 -2,-7 -66,-121 -143,-254 l -140,-242 -289,3 -289,2 -143,250 -143,250 19,30 c 10,16 73,125 140,240 67,116 126,215 131,221 9,11 568,7 581,-5 z m -9000.0002,3 105,-7 138,-241 c 76,-133 138,-245 138,-251 0,-5 -65,-122 -144,-258 l -144,-248 -283,2 -283,1 -24,37 c -12,20 -78,132 -145,250 -107,187 -121,217 -111,237 12,28 260,454 274,472 11,13 292,17 479,6 z m 3672,-31 c 14,-21 81,-136 149,-256 l 124,-218 -145,-249 -146,-250 h -85 c -47,0 -177,3 -287,7 l -202,6 -141,248 -142,249 92,157 c 50,87 116,200 146,251 l 54,92 h 279 280 z m 1905,-209 c 78,-136 141,-251 141,-256 0,-5 -64,-120 -142,-254 l -142,-244 -286,2 -285,3 -132,230 c -73,127 -137,240 -144,251 -10,19 6,51 132,268 l 144,246 h 287 286 z m 5350.0002,-4 142,-250 -144,-248 -144,-247 -289,-2 -289,-3 -143,250 c -127,224 -141,253 -131,273 23,42 262,452 272,465 7,9 79,12 296,12 h 287 z m -8906.0002,-3 c 75,-133 137,-247 137,-252 0,-6 -65,-120 -144,-255 l -143,-245 -281,-3 -280,-2 -141,246 c -78,135 -141,251 -141,257 0,6 64,120 141,254 l 142,243 h 286 l 286,-1 z m 6223.0002,-513 145,-252 -148,-252 -147,-253 -65,7 c -36,3 -164,6 -283,6 h -216 l -143,248 c -78,136 -142,252 -142,257 0,6 45,87 100,180 54,94 118,203 142,243 l 42,72 285,-2 285,-3 z m -7375.0002,239 126,-6 138,-240 c 76,-132 138,-245 138,-251 0,-13 -269,-475 -286,-493 -9,-9 -82,-10 -294,-6 l -283,6 -140,244 c -78,135 -140,248 -138,252 2,4 68,118 147,254 l 144,247 h 161 c 89,0 218,-3 287,-7 z m 2036,-233 c 75,-129 138,-243 140,-252 3,-10 -53,-117 -138,-263 l -143,-245 h -286 l -285,1 -139,244 c -87,154 -136,251 -132,261 5,14 238,418 272,472 l 15,22 280,-2 280,-3 z m 1782,-10 143,-251 -149,-255 -148,-256 -74,6 c -41,3 -167,6 -280,6 h -206 l -140,246 c -77,136 -139,251 -137,257 2,5 67,120 145,253 l 142,244 h 280 281 z m 1759,30 c 68,-118 133,-232 144,-252 l 21,-36 -143,-246 -142,-246 h -287 -287 l -143,250 c -78,138 -141,254 -139,259 2,5 66,117 143,250 l 140,241 284,-2 285,-3 z m 3583.0002,-25 c 76,-132 139,-246 139,-253 0,-7 -64,-122 -142,-257 l -143,-245 h -285 -285 l -135,236 c -74,130 -139,245 -144,255 -7,14 23,73 134,264 l 143,245 290,-2 289,-3 z m 1787,-2 c 78,-137 142,-252 142,-256 0,-5 -64,-118 -142,-253 l -143,-244 h -290 l -290,1 -142,249 -141,250 145,250 146,250 h 287 286 z m -6239.0002,-518 c 78,-134 141,-248 141,-252 0,-4 -65,-118 -143,-253 l -143,-245 -281,-3 -281,-2 -141,245 c -78,134 -141,249 -141,255 0,11 64,124 220,390 l 68,115 280,-3 281,-3 z m -3557,-9 145,-253 -143,-244 -142,-244 -288,-2 -289,-3 -142,249 -143,249 147,251 146,251 h 282 282 z m 1752,54 c 62,-107 126,-220 143,-250 l 32,-55 -143,-245 -142,-245 h -289 -289 l -143,249 c -124,217 -141,251 -131,270 22,42 261,451 271,464 7,9 74,12 295,10 l 285,-3 z m 3583.0002,-50 142,-250 -146,-250 -145,-250 h -282 -281.0002 l -143,251 -143,251 77,131 c 42,73 108,185 146,250 l 69,117 h 282.0002 l 282,-1 z m 1783,3 c 77,-136 139,-252 138,-258 -2,-7 -66,-121 -143,-253 l -140,-242 h -286 -286 l -145,253 -144,253 113,195 c 63,107 127,218 143,247 l 30,52 h 289 289 z m 1787,-7 142,-249 -143,-246 -144,-246 -288,-2 -289,-3 -140,246 c -77,135 -140,250 -140,257 0,7 63,121 140,254 l 140,243 289,-3 290,-2 z m -4595.0002,-275 c 13,-12 278,-481 278,-492 0,-6 -64,-121 -142,-255 l -142,-244 h -282 -282 l -147,256 -146,255 137,237 c 76,130 141,242 145,248 9,11 568,7 581,-5 z m 1905.0002,-216 c 73,-126 137,-239 143,-250 9,-18 -10,-56 -136,-274 l -147,-253 -280,4 -279,3 -143,250 c -127,220 -142,251 -132,270 7,12 73,126 147,254 l 135,233 280,-4 280,-3 z m -7105.0002,-23 c 76,-134 138,-249 136,-256 -2,-7 -66,-122 -143,-254 l -140,-242 -289,3 -289,2 -143,250 c -128,223 -142,252 -130,270 7,11 72,122 145,248 l 133,227 290,-2 291,-3 z m 1763,26 c 70,-123 135,-237 145,-253 l 19,-30 -143,-245 -143,-245 -289,-2 -289,-3 -142,250 -143,249 146,250 146,251 h 283 283 z m 1580,216 80,-7 143,-250 142,-250 -143,-246 -143,-246 -200,-3 c -109,-1 -239,1 -289,5 l -89,8 -142,247 -141,247 146,250 145,251 h 206 c 113,0 241,-3 285,-6 z m 5536.0002,-206 c 67,-117 132,-231 144,-253 l 23,-40 -145,-247 -144,-248 h -288 -287 l -143,250 c -78,138 -141,254 -139,259 2,5 66,117 143,250 l 140,241 h 287 286 z m -873,-553 c 124,-215 142,-252 133,-272 -17,-38 -263,-456.99989 -276,-471.99988 -10,-11 -63,-12 -292,-6 l -279,8 -135,234.99991 c -73,128.99997 -138,241.99997 -142,251.99997 -7,13 27,78 135,264 l 143,246 285,-3 285,-2 z m -7111.0002,-10 c 129,-225 141,-251 129,-270 -7,-11 -72,-122 -145,-246.99996 l -133,-227.99992 h -288 -288 l -141,245.99991 c -78,135.99997 -141,249.99997 -141,254.99997 0,5 64,120 143,254 l 142,245 289,-3 290,-2 z m 1781,4 143,-251 -144,-245.99997 -144,-246.99991 -285,-3 -286,-2 -142,246.99991 c -83,144.99997 -139,254.99997 -137,264.99997 3,9 67,123 142,253 l 137,235 h 287 l 286,-1 z m 1771,5 c 78,-136 141,-251 141,-258 0,-6 -64,-120 -143,-253.99996 l -142,-242.99992 -280,1 c -154,0 -283,4 -287,8 -3,4 -68,113.99996 -143,244.99991 -82,142.99997 -134,243.99997 -131,253.99997 6,13 239,418 272,471 14,22 15,22 293,22 h 279 z m 1783.0002,-9 146,-255 -142,-242.99997 -142,-241.99991 h -289 -289.0002 l -143,248.99991 c -78,136.99997 -141,251.99997 -139,254.99997 5,9 139,239 216,371 l 71,120 h 282.0002 283 z m -4444.0002,-520.99996 143,-251.99991 -143,-245.99991 -143,-246.00001 -289,3 -289,2 -143,248 -142,248.99992 27,45.99998 c 15,25.99999 80,137.99995 145,249.99991 l 118,201.99998 286,-2 286,-3 z m 1780,6 142,-250.99991 -144,-246.99992 -144,-247 -284,-3 -285,-2 -139,242.00001 c -76,132.99995 -140,247.99991 -142,254.99991 -2,8 60,123.99995 139,257.99991 l 142,244.99996 h 286 286 z m 1777,3 c 77,-135.99995 139,-250.99991 137,-256.99991 -2,-6 -67,-119.99996 -145,-252.99991 l -141,-243.00001 h -282 -282 l -142,247.00001 c -77,135.99995 -138,252.99991 -135,260.9999 5,13 240,419.99988 271,469.99988 14,22 15,22 297,22 l 282,-1 z m 1778.0002,-8 145,-253.99991 -142,-242.99991 -141,-243.00001 h -289 -288 l -139,240.00001 c -76,131.99995 -138,245.99991 -139,252.99991 0,8 64,123.99995 142,257.99991 l 142,243.99996 h 282 281 z m -6226.0002,-514.99982 143,-250.00001 -146,-249.99996 -146,-250 h -287 -287 l -143,251 c -110,191.999965 -141,254.99996 -135,267.99996 5,10 70,122 144,250.00001 l 135,230.99991 h 290 290 z m 1779,-1 141,-245.00001 -146,-251.99996 -146,-252 -284,3 -284,2 -139,243 c -76,133.99998 -138,248.99996 -136,255.99996 2,7 66,121 143,254.00001 l 140,241.99991 285,-2.99999 285,-2 z m 1781,-3 142,-249.00001 -24,-40.999995 c -13,-22.999995 -78,-132.999975 -143,-245.999965 l -120,-205 h -288 -288 l -142,248 -142,247.99996 146,250.00001 145,248.99991 286,-1.99999 285,-3 z m 1778.0002,8 c 77,-136.00001 139,-251.00001 137,-257.00001 -2,-5 -67,-118.99998 -144,-252.99996 l -142,-244 h -282 -282.0002 l -133,233 c -73,126.9999797 -139,240.99996 -146,251.99996 -11,19 0,43 118,245.00002 72,123.99996 137,234.99992 145,247.99991 14,21.99999 15,21.99999 302.0002,21.99999 h 287 z m 1786,1 c 76,-132.00001 138,-245.00001 138,-250.00001 1,-6 -63,-120.999985 -142,-254.99996 l -142,-245 h -289 -289 l -138,240 c -76,131.9999797 -138,245.99996 -138,252.99996 -1,7 63,123 141,258.00001 l 142,243.99991 289,-1.99999 290,-3 z m -897,-517.99997 c 77,-133 139,-247 139,-252 0,-6 -64,-122 -143,-258.00001 l -144,-247.00003 h -285 -286 l -143,250.00003 c -128,225.00001 -142,252.00001 -131,272.00001 31,59 263,454.999965 275,467.99996 11,13 54,15 296,12 l 283,-3 z m -5335.0002,-8 144,-251 -19,-33 c -10,-17 -75,-129 -144,-248.00002 l -125,-216.00002 h -290 l -290,-1 -143,250.00003 -143,249.00001 92,158 c 50,87 116,199.999984 146,250.999975 l 54,91.999985 h 287 287 z m 1776,5 c 77,-135 140,-248 139,-251 0,-3 -65,-117 -145,-254.00001 l -144,-249.00003 -281,1 c -252,0 -283,2 -296,17 -15,18 -266,454.00004 -270,471.00004 -2,5 62,122 142,260 l 145,250.99996 h 285 285 z m 1780,-2 c 77,-135 140,-251 140,-258 0,-6 -63,-120 -140,-253.00001 l -140,-241.00003 -289,2 -289,3 -142,249.00003 -143,249.00001 62,106 c 34,58 100,170 145,248.999984 l 83,141.999976 286,-1 h 287 z m 3571.0002,-5 141,-248 -145,-249.00001 -145,-250.00003 h -288 -287 l -141,246.00003 c -78,136.00001 -141,251.00001 -141,256.00001 0,5 64,120 142,254 l 142,243.99996 290,-2 290,-3 z m -4726.0002,-263 126,-7 142,-247.00001 142,-248.00003 -146,-251.00001 -146,-251.0001 -171,1 c -95,1 -226,4 -291,8 l -120,6 -138,240.0001 c -75,132 -138,243.00001 -138,248.00001 0,4 66,120 146,257.00003 l 146,250.00001 h 161 c 89,0 218,-3 287,-6 z m 3525.0002,-4 h 161 l 143,-250.00001 143,-250.00003 -145,-248.00001 -144,-247.0001 -286,-3 -287,-2 -23,37 c -63,99 -267,465.00011 -264,471.00011 2,4 69,119.00001 148,256.00003 l 144,249.00001 125,-7 c 69,-3 197,-6 285,-6 z"
           id="path3259"
           style="fill:#ffea98;fill-opacity:1" />
      </g>
      <g
         transform="matrix(0.01954177,0,0,-0.02031603,-1395.1939,1033.6142)"
         fill="#000000"
         stroke="none"
         id="g3265"
         style="display:inline;fill:#ffea98;fill-opacity:1"
         inkscape:export-filename="dynamic-devops-roadmap-banner.png"
         inkscape:export-xdpi="123.86"
         inkscape:export-ydpi="123.86">
        <path
           d="m 8856.3588,7165.1064 -150,-258 -299,-3 -299,-3 -150,-259 -150,-260 -294,-2 -293,-3 -150,-257 -150,-258 -187,1 c -102,1 -230,4 -284,8 l -98,6 -143,250 -143,250 -299,3 -299,3 -148,260 -149,259 h -306 -307 l -150,-260 -150,-259 -299,-3 -300,-3 -153,-263 -153,-263 153,-267 153,-267 299,-3 300,-3 120,-211 c 66,-116 131,-231 144,-254 l 24,-43 -138,-238 c -76,-131 -144,-245 -152,-253 -12,-13 -55,-14 -296,-11 l -282,3 -151,-259 -150,-258 -299,-5 -299,-5 -153,-260 c -84,-143 -151,-265 -150,-271 1,-6 69,-129 152,-273 l 150,-261 h 297 296 l 141,-246 c 78,-136 141,-250 141,-254 0,-5 -64,-118 -141,-251 -78,-133 -144,-249 -146,-258 -2,-9 63,-133 145,-276 l 150,-260 298,-5 299,-5 146,-253.99996 146,-254.99991 -85,-144.99995 c -46,-79.99997 -113,-195.99997 -149,-257.99997 l -65,-111 153,-265.99996 153,-266 h 297 296 l 149,-260.00001 148,-260.00003 h 311 310 l 140,242.00002 c 77,133.00002 147,250.00002 155,261.00002 15,18 27,18 295,10 l 279,-8 145,-253.00001 144,-252.00003 h 297 297 l 149,-260.00001 148,-260.0001 h 307 307 l 152,260.0001 152,260.00001 h 296 297 l 150,260.00003 150,259.00001 281.0002,1 h 281 l 149,-260.00001 148,-260.00003 h 297 298 l 148,-260.00001 148,-260.0001 309,2 310,3 150,258.0001 150,257.00001 h 297 296 l 151,260.00003 c 84,143.00001 152,266.00001 151,272.00001 0,7 -67,128 -148,268 l -147,254.99996 -115,6 c -63,4 -198,7 -300,8 l -186,1 -147,257 c -108,187.99994 -145,260.99991 -139,273.99991 4,8.99999 69,119.99995 143,247.99991 l 135,230.99997 h 297 296 l 152,260 152,260 295,2 296,3 150,259 151,259 294,-4 295,-4 149,255 c 82,140 152,260 154,266 3,7 -63,132 -147,278 l -152,266 h -296 -296 l -150,260 -150,260 h -310 l -310,-1 -150,-259 -150,-260 h -166 c -91,0 -220,3 -287,7 l -121,6 -148,258 -148,259 h -297 -296 l -142,247 -141,248 18,31 c 10,17 74,128 143,247 l 125,216 310,1 h 310 l 153,265 153,264 -151,264 -152,265 -306,7 c -278,7 -307,6 -318,-9 -6,-9 -74,-125 -150,-256 l -139,-240 -299,2 -299,3 -143,250 c -79,138 -144,252 -144,255 0,3 67,120 148,260 l 149,254 -152,265 -152,266 -299,3 -299.0002,2 -148,260 -148,260 h -308 -308 z m 886,-19 c 77,-135 141,-251 141,-256 0,-10 -257,-457 -283,-491 -11,-15 -38,-16 -296,-9 l -285,7 -142,247 -141,247 145,251 145,250 h 287 287 z m -4689,-284 h 105 l 112,-198 c 62,-108 126,-220 142,-247 l 29,-50 -147,-250 -146,-250 -281,-3 c -258,-2 -282,-1 -296,15 -30,35 -279,483 -276,497 2,7 66,122 143,256 l 140,242 185,-6 c 102,-3 232,-6 290,-6 z m 3797,-243 143,-249 -144,-246 -143,-247 h -287 -287 l -145,251 -144,250 143,247 142,246 290,-2 290,-2 z m 1784.0002,6 c 78,-137 142,-252 142,-258 0,-5 -65,-121 -144,-257 l -143,-247 -286,6 c -244.0002,5 -287.0002,8 -298.0002,21 -7,9 -71,119 -143,245 -117,203 -130,231 -121,252 13,29 261,455 275,473 7,9 78,12 292.0002,12 h 283 z m -6234.0002,-523 c 78,-135 140,-251 137,-259 -3,-8 -66,-122 -142,-252 l -137,-238 -290,-1 h -290 l -144,250 -143,250 77,132 c 43,73 109,186 147,251 l 69,117 287,-2 287,-3 z m 1786,0 c 121,-212 137,-245 128,-264 -7,-12 -74,-127 -149,-256 l -138,-235 -277,-2 -277,-2 -24,37 c -35,54 -266,460 -266,468 0,5 58,106 238,413 l 55,94 285,-5 286,-5 z m 1774,-6 144,-251 -143,-246 -143,-247 -290,3 -289,2 -143,249 -142,250 18,30 c 18,29 130,221 230,394 l 42,72 286,-2 286,-3 z m 1778,10 c 77,-135 140,-251 140,-259 0,-7 -63,-122 -140,-254 l -140,-241 h -287 -286 l -142,247 c -83,145 -139,255 -137,265 3,9 67,123 142,253 l 137,235 h 287 286 z m -4455,-510 c 74,-130 139,-245 144,-255 7,-14 -23,-73 -134,-264 l -143,-245 h -291 -292 l -138,243 c -77,133 -139,247 -139,252 0,6 64,122 144,258 l 144,247 h 285 285 z m 1787,-14 142,-249 -145,-251 -146,-250 h -282 -281 l -143,250 -143,249 92,158 c 50,87 116,200 146,251 l 54,92 h 282 l 282,-1 z m 1781,-6 143,-252 -143,-246 -143,-246 -289,3 -289,2 -139,243 c -76,134 -138,249 -136,257 2,7 66,121 143,254 l 140,241 285,-2 284,-3 z m 1559.0002,247 93,-6 140,-244 140,-243 -147,-254 -148,-254 -215,1 c -118,1 -248,4 -287.0002,8 l -73,6 -141,245 c -121,211 -139,247 -130,267 12,27 260,453 274,471 10,13 318.0002,16 494.0002,3 z m 2033,-262 143,-250 -19,-33 c -10,-18 -75,-130 -144,-249 l -125,-216 -290,-1 h -291 l -143,251 c -110,192 -141,255 -135,268 5,10 70,122 144,250 l 135,231 h 291 292 z m -6655.0002,-259 h 253 l 141,-248 c 77,-136 141,-252 141,-256 0,-5 -64,-119 -141,-253 l -141,-243 -286,2 -286,3 -144,252 -144,252 92,158 c 224,382 199,346 232,339 17,-3 144,-6 283,-6 z m 2173,-241 143,-251 -61,-107 c -34,-58 -99,-170 -144,-248 l -81,-142 -285,-1 h -285 l -142,250 c -79,137 -143,255 -143,261 0,5 32,64 70,130 39,65 102,173 140,239 l 71,120 h 287 287 z m 1782,1 c 111,-195 141,-255 134,-269 -5,-10 -70,-122 -144,-250 l -135,-231 h -285 -286 l -143,250 c -78,138 -141,254 -139,259 2,5 66,117 143,250 l 140,241 h 286 287 z m 1777.0002,15 c 73,-126 137,-240 144,-251 10,-19 -6,-51 -132,-268 l -144,-246 h -291 -292 l -141,248 -141,249 146,251 147,252 286,-2 286,-3 z m -6227.0002,-535 c 88,-155 140,-256 136,-266 -9,-23 -267,-467 -280,-481 -9,-10 -77,-11 -291,-6 l -280,6 -120,210 c -66,116 -131,229 -144,253 l -23,42 143,246 144,246 h 286 287 z m 1531,240 h 107 l 141,-246 c 78,-135 139,-249 138,-252 -2,-4 -68,-118 -147,-255 l -143,-247 -280,2 -279,3 -144,249 c -78,138 -141,252 -140,255 43,76 265,454 279,475 l 21,29 170,-6 c 94,-4 219,-7 277,-7 z m 2028,-241 c 133,-232 142,-253 132,-277 -7,-14 -71,-126 -142,-249 l -131,-223 h -288 -288 l -142,250 c -78,137 -140,253 -138,258 1,5 66,118 143,250 l 140,242 h 285 285 z m 1771.0002,19 c 74,-128 138,-240 143,-249 7,-11 -27,-77 -136,-265 l -145,-249 -283,-3 -284.0002,-2 -140,246 c -77,135 -140,251 -140,257 0,7 63,121 140,254 l 140,242 286.0002,1 h 286 z m -4455.0002,-510 c 70,-123 135,-237 146,-253 l 18,-30 -143,-245 -142,-245 h -289 -289 l -143,249 -143,249 136,236 c 76,130 142,242 147,249 7,9 78,12 292,12 h 283 z m 1795,-28 143,-250 -63,-108 c -34,-59 -99,-171 -144,-249 l -81,-142 h -285 -285 l -139,244 c -76,134 -139,247 -140,250 0,3 64,118 144,256 l 145,249 h 281 282 z m 1773,10 c 75,-132 138,-243 139,-248 2,-5 -62,-122 -142,-260 l -145,-251 -280,-1 h -280 l -144,249 -143,250 93,158 c 50,87 116,200 146,251 l 54,92 h 282 283 z m 1787.0002,-6 c 78,-135 139,-251 137,-257 -3,-7 -68,-120 -145,-252 l -140,-240 h -287 -287 l -139,240 c -77,132 -138,247 -137,256 2,9 66,125 143,257 l 140,242 h 286 287 z m -7147.0002,41 c 60,-104 124,-217 142,-250 l 34,-60 -143,-245 -142,-245 -286,-3 -286,-2 -123,212 c -67,117 -132,231 -145,253 l -23,40 122,210 c 67,116 132,227 144,248 l 23,37 287,-2 287,-3 z m 6113.0002,-318 c 14,-18 277,-485 277,-492 0,-12 -270,-474 -288,-494 -11,-11 -62,-12 -289,-6 l -275.0002,8 -141,244 -140,244 126,217 c 69,119 137,234 151,256 l 25,39 277.0002,-8 c 152,-4 277,-8 277,-8 z m 1786,-6 c 18,-17 279,-484 276,-495 -2,-7 -66,-121 -143,-254 l -140,-242 -289,3 -289,2 -143,250 -143,250 19,30 c 10,16 73,125 140,240 67,116 126,215 131,221 9,11 568,7 581,-5 z m -9000.0002,3 105,-7 138,-241 c 76,-133 138,-245 138,-251 0,-5 -65,-122 -144,-258 l -144,-248 -283,2 -283,1 -24,37 c -12,20 -78,132 -145,250 -107,187 -121,217 -111,237 12,28 260,454 274,472 11,13 292,17 479,6 z m 3672,-31 c 14,-21 81,-136 149,-256 l 124,-218 -145,-249 -146,-250 h -85 c -47,0 -177,3 -287,7 l -202,6 -141,248 -142,249 92,157 c 50,87 116,200 146,251 l 54,92 h 279 280 z m 1905,-209 c 78,-136 141,-251 141,-256 0,-5 -64,-120 -142,-254 l -142,-244 -286,2 -285,3 -132,230 c -73,127 -137,240 -144,251 -10,19 6,51 132,268 l 144,246 h 287 286 z m 5350.0002,-4 142,-250 -144,-248 -144,-247 -289,-2 -289,-3 -143,250 c -127,224 -141,253 -131,273 23,42 262,452 272,465 7,9 79,12 296,12 h 287 z m -8906.0002,-3 c 75,-133 137,-247 137,-252 0,-6 -65,-120 -144,-255 l -143,-245 -281,-3 -280,-2 -141,246 c -78,135 -141,251 -141,257 0,6 64,120 141,254 l 142,243 h 286 l 286,-1 z m 6223.0002,-513 145,-252 -148,-252 -147,-253 -65,7 c -36,3 -164,6 -283,6 h -216 l -143,248 c -78,136 -142,252 -142,257 0,6 45,87 100,180 54,94 118,203 142,243 l 42,72 285,-2 285,-3 z m -7375.0002,239 126,-6 138,-240 c 76,-132 138,-245 138,-251 0,-13 -269,-475 -286,-493 -9,-9 -82,-10 -294,-6 l -283,6 -140,244 c -78,135 -140,248 -138,252 2,4 68,118 147,254 l 144,247 h 161 c 89,0 218,-3 287,-7 z m 2036,-233 c 75,-129 138,-243 140,-252 3,-10 -53,-117 -138,-263 l -143,-245 h -286 l -285,1 -139,244 c -87,154 -136,251 -132,261 5,14 238,418 272,472 l 15,22 280,-2 280,-3 z m 1782,-10 143,-251 -149,-255 -148,-256 -74,6 c -41,3 -167,6 -280,6 h -206 l -140,246 c -77,136 -139,251 -137,257 2,5 67,120 145,253 l 142,244 h 280 281 z m 1759,30 c 68,-118 133,-232 144,-252 l 21,-36 -143,-246 -142,-246 h -287 -287 l -143,250 c -78,138 -141,254 -139,259 2,5 66,117 143,250 l 140,241 284,-2 285,-3 z m 3583.0002,-25 c 76,-132 139,-246 139,-253 0,-7 -64,-122 -142,-257 l -143,-245 h -285 -285 l -135,236 c -74,130 -139,245 -144,255 -7,14 23,73 134,264 l 143,245 290,-2 289,-3 z m 1787,-2 c 78,-137 142,-252 142,-256 0,-5 -64,-118 -142,-253 l -143,-244 h -290 l -290,1 -142,249 -141,250 145,250 146,250 h 287 286 z m -6239.0002,-518 c 78,-134 141,-248 141,-252 0,-4 -65,-118 -143,-253 l -143,-245 -281,-3 -281,-2 -141,245 c -78,134 -141,249 -141,255 0,11 64,124 220,390 l 68,115 280,-3 281,-3 z m -3557,-9 145,-253 -143,-244 -142,-244 -288,-2 -289,-3 -142,249 -143,249 147,251 146,251 h 282 282 z m 1752,54 c 62,-107 126,-220 143,-250 l 32,-55 -143,-245 -142,-245 h -289 -289 l -143,249 c -124,217 -141,251 -131,270 22,42 261,451 271,464 7,9 74,12 295,10 l 285,-3 z m 3583.0002,-50 142,-250 -146,-250 -145,-250 h -282 -281.0002 l -143,251 -143,251 77,131 c 42,73 108,185 146,250 l 69,117 h 282.0002 l 282,-1 z m 1783,3 c 77,-136 139,-252 138,-258 -2,-7 -66,-121 -143,-253 l -140,-242 h -286 -286 l -145,253 -144,253 113,195 c 63,107 127,218 143,247 l 30,52 h 289 289 z m 1787,-7 142,-249 -143,-246 -144,-246 -288,-2 -289,-3 -140,246 c -77,135 -140,250 -140,257 0,7 63,121 140,254 l 140,243 289,-3 290,-2 z m -4595.0002,-275 c 13,-12 278,-481 278,-492 0,-6 -64,-121 -142,-255 l -142,-244 h -282 -282 l -147,256 -146,255 137,237 c 76,130 141,242 145,248 9,11 568,7 581,-5 z m 1905.0002,-216 c 73,-126 137,-239 143,-250 9,-18 -10,-56 -136,-274 l -147,-253 -280,4 -279,3 -143,250 c -127,220 -142,251 -132,270 7,12 73,126 147,254 l 135,233 280,-4 280,-3 z m -7105.0002,-23 c 76,-134 138,-249 136,-256 -2,-7 -66,-122 -143,-254 l -140,-242 -289,3 -289,2 -143,250 c -128,223 -142,252 -130,270 7,11 72,122 145,248 l 133,227 290,-2 291,-3 z m 1763,26 c 70,-123 135,-237 145,-253 l 19,-30 -143,-245 -143,-245 -289,-2 -289,-3 -142,250 -143,249 146,250 146,251 h 283 283 z m 1580,216 80,-7 143,-250 142,-250 -143,-246 -143,-246 -200,-3 c -109,-1 -239,1 -289,5 l -89,8 -142,247 -141,247 146,250 145,251 h 206 c 113,0 241,-3 285,-6 z m 5536.0002,-206 c 67,-117 132,-231 144,-253 l 23,-40 -145,-247 -144,-248 h -288 -287 l -143,250 c -78,138 -141,254 -139,259 2,5 66,117 143,250 l 140,241 h 287 286 z m -873,-553 c 124,-215 142,-252 133,-272 -17,-38 -263,-456.99989 -276,-471.99988 -10,-11 -63,-12 -292,-6 l -279,8 -135,234.99991 c -73,128.99997 -138,241.99997 -142,251.99997 -7,13 27,78 135,264 l 143,246 285,-3 285,-2 z m -7111.0002,-10 c 129,-225 141,-251 129,-270 -7,-11 -72,-122 -145,-246.99996 l -133,-227.99992 h -288 -288 l -141,245.99991 c -78,135.99997 -141,249.99997 -141,254.99997 0,5 64,120 143,254 l 142,245 289,-3 290,-2 z m 1781,4 143,-251 -144,-245.99997 -144,-246.99991 -285,-3 -286,-2 -142,246.99991 c -83,144.99997 -139,254.99997 -137,264.99997 3,9 67,123 142,253 l 137,235 h 287 l 286,-1 z m 1771,5 c 78,-136 141,-251 141,-258 0,-6 -64,-120 -143,-253.99996 l -142,-242.99992 -280,1 c -154,0 -283,4 -287,8 -3,4 -68,113.99996 -143,244.99991 -82,142.99997 -134,243.99997 -131,253.99997 6,13 239,418 272,471 14,22 15,22 293,22 h 279 z m 1783.0002,-9 146,-255 -142,-242.99997 -142,-241.99991 h -289 -289.0002 l -143,248.99991 c -78,136.99997 -141,251.99997 -139,254.99997 5,9 139,239 216,371 l 71,120 h 282.0002 283 z m -4444.0002,-520.99996 143,-251.99991 -143,-245.99991 -143,-246.00001 -289,3 -289,2 -143,248 -142,248.99992 27,45.99998 c 15,25.99999 80,137.99995 145,249.99991 l 118,201.99998 286,-2 286,-3 z m 1780,6 142,-250.99991 -144,-246.99992 -144,-247 -284,-3 -285,-2 -139,242.00001 c -76,132.99995 -140,247.99991 -142,254.99991 -2,8 60,123.99995 139,257.99991 l 142,244.99996 h 286 286 z m 1777,3 c 77,-135.99995 139,-250.99991 137,-256.99991 -2,-6 -67,-119.99996 -145,-252.99991 l -141,-243.00001 h -282 -282 l -142,247.00001 c -77,135.99995 -138,252.99991 -135,260.9999 5,13 240,419.99988 271,469.99988 14,22 15,22 297,22 l 282,-1 z m 1778.0002,-8 145,-253.99991 -142,-242.99991 -141,-243.00001 h -289 -288 l -139,240.00001 c -76,131.99995 -138,245.99991 -139,252.99991 0,8 64,123.99995 142,257.99991 l 142,243.99996 h 282 281 z m -6226.0002,-514.99982 143,-250.00001 -146,-249.99996 -146,-250 h -287 -287 l -143,251 c -110,191.999965 -141,254.99996 -135,267.99996 5,10 70,122 144,250.00001 l 135,230.99991 h 290 290 z m 1779,-1 141,-245.00001 -146,-251.99996 -146,-252 -284,3 -284,2 -139,243 c -76,133.99998 -138,248.99996 -136,255.99996 2,7 66,121 143,254.00001 l 140,241.99991 285,-2.99999 285,-2 z m 1781,-3 142,-249.00001 -24,-40.999995 c -13,-22.999995 -78,-132.999975 -143,-245.999965 l -120,-205 h -288 -288 l -142,248 -142,247.99996 146,250.00001 145,248.99991 286,-1.99999 285,-3 z m 1778.0002,8 c 77,-136.00001 139,-251.00001 137,-257.00001 -2,-5 -67,-118.99998 -144,-252.99996 l -142,-244 h -282 -282.0002 l -133,233 c -73,126.9999797 -139,240.99996 -146,251.99996 -11,19 0,43 118,245.00002 72,123.99996 137,234.99992 145,247.99991 14,21.99999 15,21.99999 302.0002,21.99999 h 287 z m 1786,1 c 76,-132.00001 138,-245.00001 138,-250.00001 1,-6 -63,-120.999985 -142,-254.99996 l -142,-245 h -289 -289 l -138,240 c -76,131.9999797 -138,245.99996 -138,252.99996 -1,7 63,123 141,258.00001 l 142,243.99991 289,-1.99999 290,-3 z m -897,-517.99997 c 77,-133 139,-247 139,-252 0,-6 -64,-122 -143,-258.00001 l -144,-247.00003 h -285 -286 l -143,250.00003 c -128,225.00001 -142,252.00001 -131,272.00001 31,59 263,454.999965 275,467.99996 11,13 54,15 296,12 l 283,-3 z m -5335.0002,-8 144,-251 -19,-33 c -10,-17 -75,-129 -144,-248.00002 l -125,-216.00002 h -290 l -290,-1 -143,250.00003 -143,249.00001 92,158 c 50,87 116,199.999984 146,250.999975 l 54,91.999985 h 287 287 z m 1776,5 c 77,-135 140,-248 139,-251 0,-3 -65,-117 -145,-254.00001 l -144,-249.00003 -281,1 c -252,0 -283,2 -296,17 -15,18 -266,454.00004 -270,471.00004 -2,5 62,122 142,260 l 145,250.99996 h 285 285 z m 1780,-2 c 77,-135 140,-251 140,-258 0,-6 -63,-120 -140,-253.00001 l -140,-241.00003 -289,2 -289,3 -142,249.00003 -143,249.00001 62,106 c 34,58 100,170 145,248.999984 l 83,141.999976 286,-1 h 287 z m 3571.0002,-5 141,-248 -145,-249.00001 -145,-250.00003 h -288 -287 l -141,246.00003 c -78,136.00001 -141,251.00001 -141,256.00001 0,5 64,120 142,254 l 142,243.99996 290,-2 290,-3 z m -4726.0002,-263 126,-7 142,-247.00001 142,-248.00003 -146,-251.00001 -146,-251.0001 -171,1 c -95,1 -226,4 -291,8 l -120,6 -138,240.0001 c -75,132 -138,243.00001 -138,248.00001 0,4 66,120 146,257.00003 l 146,250.00001 h 161 c 89,0 218,-3 287,-6 z m 3525.0002,-4 h 161 l 143,-250.00001 143,-250.00003 -145,-248.00001 -144,-247.0001 -286,-3 -287,-2 -23,37 c -63,99 -267,465.00011 -264,471.00011 2,4 69,119.00001 148,256.00003 l 144,249.00001 125,-7 c 69,-3 197,-6 285,-6 z"
           id="path3263"
           style="fill:#ffea98;fill-opacity:1" />
      </g>
    </g>
    <g
       id="g1283"
       transform="matrix(0.14629298,0,0,0.14629298,369.88431,86.050708)">
      <g
         id="g11084">
        <g
           id="g11074">
          <path
             style="fill:#dbdcdc"
             d="M 153.506,256.216 V 491.251 H 84.129 V 256.216 c 0,-17.604 20.325,-43.405 34.695,-43.405 14.352,0.001 34.682,25.801 34.682,43.405 z"
             id="path11068"
             sodipodi:nodetypes="sccscs" />
          <rect
             x="84.128998"
             y="273.741"
             style="fill:#bcbcbb"
             width="69.376999"
             height="13.933"
             id="rect11072" />
          <rect
             x="84.128998"
             y="335.65024"
             style="fill:#bcbcbb"
             width="69.376999"
             height="13.933"
             id="rect17367" />
        </g>
        <g
           id="g11082">
          <path
             style="fill:#dbdcdc"
             d="M 429.498,256.216 V 491.251 H 360.12 V 256.216 c 0,-17.604 20.325,-43.405 34.704,-43.405 14.357,0.001 34.674,25.801 34.674,43.405 z"
             id="path11076"
             sodipodi:nodetypes="sccscs" />
          <rect
             x="360.12"
             y="273.741"
             style="fill:#bcbcbb"
             width="69.377998"
             height="13.933"
             id="rect11080" />
          <rect
             x="360.12"
             y="335.65024"
             style="fill:#bcbcbb"
             width="69.377998"
             height="13.933"
             id="rect17369" />
        </g>
      </g>
      <path
         style="fill:#215574;fill-opacity:1"
         d="M 345.46,249.766 V 491.252 H 166.535 V 249.766 c 0,-49.4 52.416,-121.766 89.463,-121.766 37.056,0 89.462,72.366 89.462,121.766 z"
         id="path11086"
         sodipodi:nodetypes="sccsss" />
      <rect
         x="166.535"
         y="247.02863"
         style="opacity:0.4;fill:#e9d3c4"
         width="178.924"
         height="13.942"
         id="rect11090" />
      <path
         style="fill:#ffffff"
         d="m 443.485,431.304 c -1.279,13.39 -8.107,18.744 -19.03,20.348 -2.708,0.401 -5.657,0.578 -8.851,0.578 H 96.391 c -3.189,0 -6.147,-0.178 -8.842,-0.57 -10.936,-1.612 -17.765,-6.966 -19.034,-20.356 -1.461,-15.332 10.343,-25.355 45.026,-50.175 38.218,-27.368 83.516,-60.821 89.266,-128.813 h 106.38 c 5.746,67.992 51.043,101.445 89.271,128.813 34.683,24.82 46.487,34.842 45.027,50.175 z"
         id="path11092"
         sodipodi:nodetypes="ccssccccccc" />
      <g
         id="g11100">
        <polygon
           style="fill:#5a5553"
           points="204.425,512 251.512,512 244.786,464.925 211.146,464.925 "
           id="polygon11096" />
        <polygon
           style="fill:#5a5553"
           points="260.483,512 307.575,512 300.845,464.925 267.214,464.925 "
           id="polygon11098" />
      </g>
      <rect
         x="205.11501"
         y="438.27899"
         style="fill:#ffffff"
         width="101.761"
         height="29.264999"
         id="rect11104" />
      <path
         style="fill:#5a5553"
         d="m 267.152,474.521 c 0,6.156 -4.989,11.163 -11.154,11.163 v 0 c -6.161,0 -11.153,-5.007 -11.153,-11.163 v -90.604 c 0,-6.164 4.993,-11.153 11.153,-11.153 v 0 c 6.165,0 11.154,4.989 11.154,11.153 z"
         id="path11106" />
      <rect
         x="166.535"
         y="310.8139"
         style="opacity:0.4;fill:#e9d3c4"
         width="178.924"
         height="13.942"
         id="rect17343" />
      <path
         style="fill:#5a5553"
         d="m 202.807,252.316 v 46.567 c 0,19.519 -29.27,57.159 -57.15,79.448 -27.881,22.309 -48.834,40.366 -54.366,44.607 -8.183,6.281 -12.361,17.773 -3.741,28.722 -10.936,-1.612 -17.765,-6.966 -19.034,-20.356 -1.461,-15.332 10.343,-25.355 45.026,-50.175 38.217,-27.368 83.515,-60.821 89.265,-128.813 z"
         id="path11110" />
      <path
         style="fill:#5a5553"
         d="m 309.188,252.316 v 46.567 c 0,19.519 29.278,57.159 57.15,79.448 27.881,22.309 48.838,40.366 54.366,44.607 8.188,6.281 12.361,17.773 3.75,28.722 10.922,-1.612 17.751,-6.966 19.03,-20.356 1.461,-15.332 -10.343,-25.355 -45.026,-50.175 -38.222,-27.368 -83.523,-60.821 -89.27,-128.813 z"
         id="path11112" />
      <g
         id="Page-1-6-1"
         stroke="none"
         stroke-width="1"
         fill="none"
         fill-rule="evenodd"
         transform="matrix(4.084099,0,0,4.084099,183.28274,221.20493)">
        <g
           id="icecream-icon-2-2">
          <path
             d="m 17.615553,24.133607 c -2.458151,0.0042 -4.448065,1.99921 -4.445971,4.457364 v 41.951665 c -0.0015,1.180655 0.466058,2.313554 1.299838,3.149472 0.83378,0.835918 1.965478,1.306381 3.146133,1.307892 2.456681,0 4.447868,-1.994984 4.447868,-4.457364 V 28.590971 c 0.0021,-2.458154 -1.987816,-4.45317 -4.445968,-4.457364"
             id="Path-9-9"
             fill="#f7d186"
             fill-rule="nonzero" />
          <path
             d="m 35.462111,18.635051 c 0.0258,-0.558298 0.0258,-1.117489 0,-1.675787 C 35.036514,7.5201398 27.265576,0 17.742852,0 8.2201286,0 0.44919079,7.5201398 0.01979423,16.959264 c -0.02701148,0.577295 -0.02637743,1.155552 0.0019,1.732786 -0.0056999,0.148199 -0.0208998291,0.294498 -0.0208998291,0.444597 v 29.189466 c 0,5.582156 4.5561634991,10.149719 10.1250185991,10.149719 h 15.237879 c 5.566955,0 10.123118,-4.567563 10.123118,-10.149719 V 19.136647 c 0,-0.170999 -0.0171,-0.334397 -0.0247,-0.501596"
             id="path10-1-3"
             fill="#ff9234"
             fill-rule="nonzero" />
          <g
             id="Path-Clipped-2-1"
             transform="translate(0.0882,0.0019)">
            <mask
               id="mask10818-9"
               fill="#ffffff">
              <path
                 d="m 0.01899985,16.957364 c -0.0250624,0.577353 -0.02379443,1.155549 0.0038,1.732787 C 0.01519988,18.838349 0,18.984648 0,19.134747 v 29.189466 c 0,5.582156 4.5561635,10.149719 10.125019,10.149719 h 15.237878 c 5.566955,0 10.125019,-4.567563 10.125019,-10.149719 V 19.134747 c 0,-0.170999 -0.019,-0.334397 -0.0266,-0.501596 0.02766,-0.558238 0.02829,-1.117487 0.0019,-1.675787 C 35.03382,7.5182398 27.262882,0 17.742058,0 8.2193343,0 0.44839641,7.5182398 0.01899985,16.955464 Z"
                 id="use10816-4" />
            </mask>
            <g
               id="g15-7-7" />
            <polygon
               id="polygon17-0-8"
               fill="#ffcd3c"
               fill-rule="nonzero"
               mask="url(#mask-2-3-1-6)"
               points="2.1108831,61.627907 -10.923013,48.561712 33.084435,4.4478644 46.120231,17.51406 " />
          </g>
          <g
             id="g27-9-4"
             transform="translate(0.0882,0.0019)">
            <mask
               id="mask10825-5"
               fill="#ffffff">
              <path
                 d="m 0.01899985,16.957364 c -0.0250624,0.577353 -0.02379443,1.155549 0.0038,1.732787 C 0.01519988,18.838349 0,18.984648 0,19.134747 v 29.189466 c 0,5.582156 4.5561635,10.149719 10.125019,10.149719 h 15.237878 c 5.566955,0 10.125019,-4.567563 10.125019,-10.149719 V 19.134747 c 0,-0.170999 -0.019,-0.334397 -0.0266,-0.501596 0.02766,-0.558238 0.02829,-1.117487 0.0019,-1.675787 C 35.03382,7.5182398 27.262882,0 17.742058,0 8.2193343,0 0.44839641,7.5182398 0.01899985,16.955464 Z"
                 id="use10823-0" />
            </mask>
            <g
               id="g23-3-3" />
            <polygon
               id="polygon25-6-6"
               fill="#f3807b"
               fill-rule="nonzero"
               mask="url(#mask-4-7-7-5)"
               points="-10.962912,48.519912 -27.181183,32.261742 16.822465,-11.852105 33.044536,4.4060647 " />
          </g>
          <g
             id="g36-0-1"
             transform="translate(0.0882,0.0019)">
            <mask
               id="mask10832-0"
               fill="#ffffff">
              <path
                 d="m 0.01899985,16.957364 c -0.0250624,0.577353 -0.02379443,1.155549 0.0038,1.732787 C 0.01519988,18.838349 0,18.984648 0,19.134747 v 29.189466 c 0,5.582156 4.5561635,10.149719 10.125019,10.149719 h 15.237878 c 5.566955,0 10.125019,-4.567563 10.125019,-10.149719 V 19.134747 c 0,-0.170999 -0.019,-0.334397 -0.0266,-0.501596 0.02766,-0.558238 0.02829,-1.117487 0.0019,-1.675787 C 35.03382,7.5182398 27.262882,0 17.742058,0 8.2193343,0 0.44839641,7.5182398 0.01899985,16.955464 Z"
                 id="use10830-6" />
            </mask>
            <g
               id="g32-6-3" />
            <polygon
               id="polygon34-2-2"
               fill="#35d0ba"
               fill-rule="nonzero"
               mask="url(#mask-6-3-2-4)"
               points="15.188479,74.734002 2.1545828,61.667807 46.162031,17.55586 59.195926,30.622055 " />
          </g>
          <polyline
             id="polyline38-6-0"
             fill="#d8ae64"
             fill-rule="nonzero"
             points="14.3760794 58.5252318 22.0900177 66.2581699 22.0900177 58.4606323 14.3760794 58.5252318" />
        </g>
      </g>
    </g>
    <g
       aria-label="Crossplane
Bootstrapper"
       id="text1969"
       style="font-size:62.1317px;font-family:'Noto Naskh Arabic';-inkscape-font-specification:'Noto Naskh Arabic';text-align:center;letter-spacing:0.079204px;text-anchor:middle;fill:#1a1a1a;stroke-width:1.86396;stop-color:#000000"
       transform="matrix(0.2820657,0,0,0.2820657,233.52651,48.835112)">
      <path
         d="m 478.18226,482.81146 q -4.84627,0 -8.69844,-1.49116 -3.85216,-1.49116 -6.52382,-4.34922 -2.67167,-2.92019 -4.1007,-7.08301 -1.42902,-4.16283 -1.42902,-9.56828 0,-5.40546 1.61542,-9.56828 1.67756,-4.16283 4.53561,-7.02089 2.85806,-2.92019 6.71023,-4.41135 3.85216,-1.49116 8.26351,-1.49116 2.67167,0 4.84628,0.43492 2.1746,0.37279 3.79003,0.86985 1.61542,0.49705 2.67166,1.05624 1.05624,0.55918 1.49116,0.80771 l -2.29887,6.39956 q -1.49116,-0.93197 -4.28709,-1.73968 -2.73379,-0.86985 -5.96464,-0.86985 -2.79593,0 -5.21906,0.99411 -2.42314,0.93197 -4.22496,2.85806 -1.73969,1.92608 -2.73379,4.84627 -0.99411,2.92019 -0.99411,6.77235 0,3.41725 0.74558,6.27531 0.80771,2.85805 2.42314,4.97053 1.61542,2.05035 4.10069,3.23085 2.48527,1.11837 5.96464,1.11837 4.16282,0 6.77236,-0.80771 2.60953,-0.86984 4.03856,-1.61542 l 2.11247,6.39956 q -0.74558,0.49705 -2.05034,0.99411 -1.24264,0.49705 -2.98232,0.9941 -1.73969,0.43493 -3.9143,0.68345 -2.17461,0.31066 -4.65988,0.31066 z"
         style="font-weight:500;font-family:Ubuntu;-inkscape-font-specification:'Ubuntu Medium'"
         id="path47095" />
      <path
         d="m 516.90729,456.15696 q -0.93197,-0.31066 -2.60953,-0.62131 -1.61542,-0.37279 -3.79003,-0.37279 -1.24263,0 -2.67166,0.24852 -1.3669,0.24853 -1.92609,0.43492 v 26.03319 h -7.51793 V 450.9379 q 2.17461,-0.80771 5.40546,-1.49116 3.29298,-0.74558 7.2694,-0.74558 0.74559,0 1.73969,0.12426 0.99411,0.0621 1.98822,0.24853 0.9941,0.12426 1.92608,0.37279 0.93197,0.18639 1.49116,0.37279 z"
         style="font-weight:500;font-family:Ubuntu;-inkscape-font-specification:'Ubuntu Medium'"
         id="path47097" />
      <path
         d="m 552.89861,465.60098 q 0,3.85217 -1.11837,7.02088 -1.11837,3.16872 -3.16871,5.40546 -2.05035,2.23674 -4.97054,3.47938 -2.85806,1.24263 -6.33743,1.24263 -3.47938,0 -6.33744,-1.24263 -2.85806,-1.24264 -4.9084,-3.47938 -2.05035,-2.23674 -3.23085,-5.40546 -1.11837,-3.16871 -1.11837,-7.02088 0,-3.85216 1.11837,-6.95875 1.1805,-3.16872 3.23085,-5.40546 2.11248,-2.23674 4.97053,-3.41724 2.85806,-1.24263 6.27531,-1.24263 3.41724,0 6.2753,1.24263 2.92019,1.1805 4.97053,3.41724 2.05035,2.23674 3.16872,5.40546 1.1805,3.10659 1.1805,6.95875 z m -7.70433,0 q 0,-4.84627 -2.11248,-7.6422 -2.05034,-2.85806 -5.77824,-2.85806 -3.72791,0 -5.84038,2.85806 -2.05035,2.79593 -2.05035,7.6422 0,4.90841 2.05035,7.76646 2.11247,2.85806 5.84038,2.85806 3.7279,0 5.77824,-2.85806 2.11248,-2.85805 2.11248,-7.76646 z"
         style="font-weight:500;font-family:Ubuntu;-inkscape-font-specification:'Ubuntu Medium'"
         id="path47099" />
      <path
         d="m 568.8835,476.47403 q 2.98233,0 4.34922,-0.68345 1.3669,-0.74558 1.3669,-2.48527 0,-1.61542 -1.49116,-2.67166 -1.42903,-1.05624 -4.78414,-2.29887 -2.05035,-0.74558 -3.79003,-1.5533 -1.67756,-0.86984 -2.92019,-1.98821 -1.24264,-1.11837 -1.98822,-2.67166 -0.68345,-1.61543 -0.68345,-3.9143 0,-4.47348 3.29298,-7.02088 3.29298,-2.60953 8.94697,-2.60953 2.85806,0 5.46759,0.55918 2.60953,0.49705 3.91429,0.99411 l -1.36689,6.0889 q -1.24264,-0.55918 -3.16872,-0.9941 -1.92608,-0.49706 -4.47348,-0.49706 -2.29888,0 -3.7279,0.80772 -1.42903,0.74558 -1.42903,2.361 0,0.80771 0.24852,1.42903 0.31066,0.62132 0.99411,1.1805 0.68345,0.49706 1.80182,1.05624 1.11837,0.49705 2.73379,1.05624 2.67167,0.99411 4.53562,1.98821 1.86395,0.93198 3.04445,2.17461 1.24264,1.18051 1.80182,2.7338 0.55919,1.55329 0.55919,3.7279 0,4.65988 -3.47938,7.08301 -3.41724,2.36101 -9.81681,2.36101 -4.28708,0 -6.89662,-0.74558 -2.60953,-0.68345 -3.66577,-1.11837 l 1.30477,-6.2753 q 1.67756,0.68344 3.97643,1.30476 2.361,0.62132 5.34332,0.62132 z"
         style="font-weight:500;font-family:Ubuntu;-inkscape-font-specification:'Ubuntu Medium'"
         id="path47101" />
      <path
         d="m 597.35682,476.47403 q 2.98233,0 4.34922,-0.68345 1.3669,-0.74558 1.3669,-2.48527 0,-1.61542 -1.49116,-2.67166 -1.42903,-1.05624 -4.78414,-2.29887 -2.05035,-0.74558 -3.79003,-1.5533 -1.67756,-0.86984 -2.92019,-1.98821 -1.24264,-1.11837 -1.98822,-2.67166 -0.68345,-1.61543 -0.68345,-3.9143 0,-4.47348 3.29298,-7.02088 3.29298,-2.60953 8.94697,-2.60953 2.85806,0 5.46759,0.55918 2.60953,0.49705 3.91429,0.99411 l -1.36689,6.0889 q -1.24264,-0.55918 -3.16872,-0.9941 -1.92608,-0.49706 -4.47348,-0.49706 -2.29888,0 -3.7279,0.80772 -1.42903,0.74558 -1.42903,2.361 0,0.80771 0.24852,1.42903 0.31066,0.62132 0.99411,1.1805 0.68345,0.49706 1.80182,1.05624 1.11837,0.49705 2.73379,1.05624 2.67167,0.99411 4.53562,1.98821 1.86395,0.93198 3.04445,2.17461 1.24264,1.18051 1.80182,2.7338 0.55919,1.55329 0.55919,3.7279 0,4.65988 -3.47938,7.08301 -3.41724,2.36101 -9.81681,2.36101 -4.28708,0 -6.89662,-0.74558 -2.60953,-0.68345 -3.66577,-1.11837 l 1.30477,-6.2753 q 1.67756,0.68344 3.97643,1.30476 2.361,0.62132 5.34332,0.62132 z"
         style="font-weight:500;font-family:Ubuntu;-inkscape-font-specification:'Ubuntu Medium'"
         id="path47103" />
      <path
         d="m 639.25058,465.78738 q 0,-5.03267 -2.29887,-7.8286 -2.23674,-2.79592 -7.26941,-2.79592 -1.05624,0 -2.23674,0.12426 -1.11837,0.0621 -2.23674,0.37279 v 18.57738 q 0.99411,0.68345 2.60953,1.30476 1.67756,0.55919 3.54151,0.55919 4.10069,0 5.96464,-2.79593 1.92608,-2.79592 1.92608,-7.51793 z m 7.70433,-0.12427 q 0,3.7279 -0.9941,6.83449 -0.93198,3.10658 -2.7338,5.34333 -1.80182,2.23674 -4.53561,3.47937 -2.67166,1.24263 -6.08891,1.24263 -2.29887,0 -4.22495,-0.55918 -1.92609,-0.55919 -3.16872,-1.24263 v 12.61273 h -7.51794 v -42.933 q 2.29888,-0.62132 5.65399,-1.18051 3.35511,-0.55918 7.08301,-0.55918 3.85217,0 6.89662,1.1805 3.04445,1.1805 5.15693,3.41724 2.17461,2.17461 3.29298,5.34333 1.1805,3.10659 1.1805,7.02088 z"
         style="font-weight:500;font-family:Ubuntu;-inkscape-font-specification:'Ubuntu Medium'"
         id="path47105" />
      <path
         d="m 666.10847,482.5008 q -3.35511,-0.0621 -5.59185,-0.74558 -2.17461,-0.68345 -3.47938,-1.92608 -1.30476,-1.30477 -1.86395,-3.16872 -0.49705,-1.92608 -0.49705,-4.34922 v -37.40328 l 7.51794,-1.24263 v 37.21689 q 0,1.36689 0.18639,2.29887 0.24853,0.93197 0.80771,1.61542 0.55919,0.62132 1.49116,0.99411 0.99411,0.31066 2.48527,0.49705 z"
         style="font-weight:500;font-family:Ubuntu;-inkscape-font-specification:'Ubuntu Medium'"
         id="path47107" />
      <path
         d="m 684.76499,476.59829 q 3.47938,0 5.2812,-0.37279 v -8.32565 q -0.62132,-0.18639 -1.80182,-0.37279 -1.1805,-0.18639 -2.60953,-0.18639 -1.24264,0 -2.5474,0.18639 -1.24264,0.1864 -2.29888,0.68345 -0.9941,0.49706 -1.61542,1.42903 -0.62132,0.86985 -0.62132,2.23674 0,2.67167 1.67756,3.7279 1.67755,0.99411 4.53561,0.99411 z m -0.62131,-28.02139 q 3.7279,0 6.2753,0.93197 2.5474,0.93198 4.03856,2.60953 1.55329,1.67756 2.17461,4.10069 0.68345,2.36101 0.68345,5.21907 v 19.69575 q -1.73969,0.37279 -5.2812,0.86984 -3.47937,0.55918 -7.89072,0.55918 -2.92019,0 -5.34333,-0.55918 -2.42314,-0.55919 -4.16282,-1.80182 -1.67756,-1.24263 -2.67167,-3.23085 -0.93197,-1.98821 -0.93197,-4.9084 0,-2.79593 1.05624,-4.72201 1.11837,-1.92608 2.98232,-3.10659 1.86395,-1.24263 4.28708,-1.73968 2.48527,-0.55919 5.15694,-0.55919 1.24263,0 2.60953,0.1864 1.36689,0.12426 2.92019,0.49705 v -1.24263 q 0,-1.30477 -0.31066,-2.48527 -0.31066,-1.1805 -1.11837,-2.05035 -0.74558,-0.93197 -2.05035,-1.42903 -1.24263,-0.49705 -3.16871,-0.49705 -2.60954,0 -4.78415,0.37279 -2.1746,0.37279 -3.5415,0.86984 l -0.93198,-6.0889 q 1.42903,-0.49706 4.16283,-0.99411 2.73379,-0.49705 5.84038,-0.49705 z"
         style="font-weight:500;font-family:Ubuntu;-inkscape-font-specification:'Ubuntu Medium'"
         id="path47109" />
      <path
         d="m 706.59019,450.44085 q 2.17461,-0.62132 5.65399,-1.18051 3.47937,-0.55918 7.70433,-0.55918 3.97643,0 6.64809,1.11837 2.67166,1.05624 4.22495,3.04445 1.61543,1.92609 2.23674,4.72201 0.68345,2.7338 0.68345,6.02678 v 18.26672 h -7.51793 v -17.08622 q 0,-2.60953 -0.37279,-4.41135 -0.31066,-1.86395 -1.11837,-2.98232 -0.74558,-1.18051 -2.11248,-1.67756 -1.30477,-0.55918 -3.23085,-0.55918 -1.42903,0 -2.98232,0.18639 -1.55329,0.1864 -2.29887,0.31066 v 26.21958 h -7.51794 z"
         style="font-weight:500;font-family:Ubuntu;-inkscape-font-specification:'Ubuntu Medium'"
         id="path47111" />
      <path
         d="m 741.21457,465.78738 q 0,-4.28709 1.24263,-7.51794 1.30476,-3.23085 3.41724,-5.34333 2.11248,-2.1746 4.84628,-3.23084 2.73379,-1.11837 5.59185,-1.11837 6.71022,0 10.43812,4.16282 3.79004,4.16282 3.79004,12.42634 0,0.62132 -0.0621,1.42903 0,0.74558 -0.0621,1.3669 H 748.9811 q 0.31066,3.91429 2.73379,6.0889 2.48527,2.11248 7.14515,2.11248 2.73379,0 4.97053,-0.49705 2.29888,-0.49706 3.60364,-1.05624 l 0.99411,6.15104 q -0.62132,0.31065 -1.73969,0.68344 -1.05624,0.31066 -2.48527,0.55919 -1.36689,0.31066 -2.98232,0.49705 -1.61542,0.1864 -3.29298,0.1864 -4.28709,0 -7.4558,-1.24264 -3.16872,-1.30476 -5.21906,-3.5415 -2.05035,-2.29888 -3.04446,-5.34333 -0.9941,-3.10658 -0.9941,-6.77235 z m 21.80822,-3.35512 q 0,-1.55329 -0.43492,-2.92019 -0.43492,-1.42902 -1.30477,-2.42313 -0.80771,-1.05624 -2.05034,-1.61543 -1.1805,-0.62131 -2.85806,-0.62131 -1.73969,0 -3.04445,0.68345 -1.30477,0.62131 -2.23674,1.67755 -0.86985,1.05624 -1.3669,2.42314 -0.49706,1.3669 -0.68345,2.79592 z"
         style="font-weight:500;font-family:Ubuntu;-inkscape-font-specification:'Ubuntu Medium'"
         id="path47113" />
      <path
         d="m 437.4153,571.21098 q -3.41724,0 -6.89661,-0.24853 -3.47938,-0.1864 -6.08891,-0.86984 v -41.81464 q 1.3669,-0.24852 2.92019,-0.43492 1.55329,-0.24853 3.16872,-0.37279 1.61542,-0.12426 3.16871,-0.18639 1.61543,-0.0621 3.04446,-0.0621 3.91429,0 7.26941,0.62132 3.35511,0.55919 5.77824,1.92608 2.48527,1.3669 3.85217,3.60364 1.3669,2.23674 1.3669,5.52972 0,3.04446 -1.49117,5.21907 -1.42902,2.1746 -4.03856,3.47937 3.9143,1.30477 5.77825,3.85217 1.86395,2.5474 1.86395,6.46169 0,6.64809 -4.84627,10.00321 -4.84627,3.29298 -14.84948,3.29298 z m -5.28119,-19.88215 v 13.10979 q 1.30477,0.12426 2.79593,0.1864 1.49116,0.0621 2.73379,0.0621 2.42314,0 4.47348,-0.31066 2.11248,-0.31066 3.60364,-1.05624 1.5533,-0.80771 2.42314,-2.11248 0.93197,-1.30476 0.93197,-3.35511 0,-3.66577 -2.67166,-5.0948 -2.67166,-1.42903 -7.39367,-1.42903 z m 0,-6.15104 h 5.52972 q 4.47348,0 7.02088,-1.24263 2.5474,-1.30477 2.5474,-4.59775 0,-3.10658 -2.67166,-4.41135 -2.60953,-1.30476 -6.83449,-1.30476 -1.80182,0 -3.23084,0.0621 -1.3669,0.0621 -2.36101,0.1864 z"
         style="font-weight:500;font-family:Ubuntu;-inkscape-font-specification:'Ubuntu Medium'"
         id="path47115" />
      <path
         d="m 494.34499,554.43542 q 0,3.85216 -1.11837,7.02088 -1.11837,3.16872 -3.16872,5.40546 -2.05035,2.23674 -4.97054,3.47937 -2.85805,1.24264 -6.33743,1.24264 -3.47937,0 -6.33743,-1.24264 -2.85806,-1.24263 -4.90841,-3.47937 -2.05034,-2.23674 -3.23084,-5.40546 -1.11838,-3.16872 -1.11838,-7.02088 0,-3.85217 1.11838,-6.95875 1.1805,-3.16872 3.23084,-5.40546 2.11248,-2.23674 4.97054,-3.41724 2.85806,-1.24264 6.2753,-1.24264 3.41724,0 6.2753,1.24264 2.92019,1.1805 4.97054,3.41724 2.05034,2.23674 3.16871,5.40546 1.18051,3.10658 1.18051,6.95875 z m -7.70433,0 q 0,-4.84628 -2.11248,-7.6422 -2.05035,-2.85806 -5.77825,-2.85806 -3.7279,0 -5.84038,2.85806 -2.05034,2.79592 -2.05034,7.6422 0,4.9084 2.05034,7.76646 2.11248,2.85806 5.84038,2.85806 3.7279,0 5.77825,-2.85806 2.11248,-2.85806 2.11248,-7.76646 z"
         style="font-weight:500;font-family:Ubuntu;-inkscape-font-specification:'Ubuntu Medium'"
         id="path47117" />
      <path
         d="m 531.57892,554.43542 q 0,3.85216 -1.11837,7.02088 -1.11837,3.16872 -3.16872,5.40546 -2.05034,2.23674 -4.97053,3.47937 -2.85806,1.24264 -6.33744,1.24264 -3.47937,0 -6.33743,-1.24264 -2.85806,-1.24263 -4.9084,-3.47937 -2.05035,-2.23674 -3.23085,-5.40546 -1.11837,-3.16872 -1.11837,-7.02088 0,-3.85217 1.11837,-6.95875 1.1805,-3.16872 3.23085,-5.40546 2.11247,-2.23674 4.97053,-3.41724 2.85806,-1.24264 6.2753,-1.24264 3.41725,0 6.2753,1.24264 2.92019,1.1805 4.97054,3.41724 2.05035,2.23674 3.16872,5.40546 1.1805,3.10658 1.1805,6.95875 z m -7.70433,0 q 0,-4.84628 -2.11248,-7.6422 -2.05034,-2.85806 -5.77825,-2.85806 -3.7279,0 -5.84038,2.85806 -2.05034,2.79592 -2.05034,7.6422 0,4.9084 2.05034,7.76646 2.11248,2.85806 5.84038,2.85806 3.72791,0 5.77825,-2.85806 2.11248,-2.85806 2.11248,-7.76646 z"
         style="font-weight:500;font-family:Ubuntu;-inkscape-font-specification:'Ubuntu Medium'"
         id="path47119" />
      <path
         d="m 539.05177,529.64487 7.51793,-1.24263 v 9.8168 h 11.5565 v 6.27531 h -11.5565 v 13.23405 q 0,3.91429 1.24264,5.59185 1.24263,1.67756 4.22495,1.67756 2.05035,0 3.60364,-0.43493 1.61543,-0.43492 2.5474,-0.80771 l 1.24264,5.96465 q -1.30477,0.55918 -3.41725,1.11837 -2.11248,0.62131 -4.97053,0.62131 -3.47938,0 -5.84038,-0.93197 -2.29888,-0.93198 -3.66577,-2.67167 -1.3669,-1.80181 -1.92609,-4.28708 -0.55918,-2.5474 -0.55918,-5.77825 z"
         style="font-weight:500;font-family:Ubuntu;-inkscape-font-specification:'Ubuntu Medium'"
         id="path47121" />
      <path
         d="m 573.61401,565.30846 q 2.98232,0 4.34922,-0.68344 1.3669,-0.74558 1.3669,-2.48527 0,-1.61543 -1.49116,-2.67167 -1.42903,-1.05623 -4.78414,-2.29887 -2.05035,-0.74558 -3.79004,-1.55329 -1.67755,-0.86984 -2.92019,-1.98821 -1.24263,-1.11838 -1.98821,-2.67167 -0.68345,-1.61542 -0.68345,-3.91429 0,-4.47349 3.29298,-7.02089 3.29298,-2.60953 8.94697,-2.60953 2.85805,0 5.46759,0.55919 2.60953,0.49705 3.91429,0.9941 l -1.3669,6.08891 q -1.24263,-0.55918 -3.16871,-0.99411 -1.92608,-0.49705 -4.47348,-0.49705 -2.29888,0 -3.72791,0.80771 -1.42903,0.74558 -1.42903,2.36101 0,0.80771 0.24853,1.42903 0.31066,0.62131 0.99411,1.1805 0.68345,0.49705 1.80182,1.05624 1.11837,0.49705 2.73379,1.05624 2.67167,0.9941 4.53562,1.98821 1.86395,0.93198 3.04445,2.17461 1.24263,1.1805 1.80182,2.73379 0.55918,1.5533 0.55918,3.72791 0,4.65987 -3.47937,7.08301 -3.41724,2.361 -9.81681,2.361 -4.28709,0 -6.89662,-0.74558 -2.60953,-0.68344 -3.66577,-1.11837 l 1.30477,-6.2753 q 1.67755,0.68345 3.97643,1.30477 2.361,0.62131 5.34332,0.62131 z"
         style="font-weight:500;font-family:Ubuntu;-inkscape-font-specification:'Ubuntu Medium'"
         id="path47123" />
      <path
         d="m 593.5753,529.64487 7.51793,-1.24263 v 9.8168 h 11.5565 v 6.27531 h -11.5565 v 13.23405 q 0,3.91429 1.24264,5.59185 1.24263,1.67756 4.22495,1.67756 2.05035,0 3.60364,-0.43493 1.61543,-0.43492 2.5474,-0.80771 l 1.24263,5.96465 q -1.30476,0.55918 -3.41724,1.11837 -2.11248,0.62131 -4.97053,0.62131 -3.47938,0 -5.84038,-0.93197 -2.29888,-0.93198 -3.66577,-2.67167 -1.3669,-1.80181 -1.92609,-4.28708 -0.55918,-2.5474 -0.55918,-5.77825 z"
         style="font-weight:500;font-family:Ubuntu;-inkscape-font-specification:'Ubuntu Medium'"
         id="path47125" />
      <path
         d="m 638.51354,544.9914 q -0.93198,-0.31066 -2.60954,-0.62132 -1.61542,-0.37279 -3.79003,-0.37279 -1.24263,0 -2.67166,0.24853 -1.3669,0.24853 -1.92609,0.43492 v 26.03318 h -7.51793 v -30.94158 q 2.17461,-0.80772 5.40546,-1.49116 3.29298,-0.74558 7.26941,-0.74558 0.74558,0 1.73968,0.12426 0.99411,0.0621 1.98822,0.24853 0.9941,0.12426 1.92608,0.37279 0.93198,0.18639 1.49116,0.37279 z"
         style="font-weight:500;font-family:Ubuntu;-inkscape-font-specification:'Ubuntu Medium'"
         id="path47127" />
      <path
         d="m 656.54879,565.43273 q 3.47938,0 5.2812,-0.37279 v -8.32565 q -0.62132,-0.18639 -1.80182,-0.37279 -1.1805,-0.1864 -2.60953,-0.1864 -1.24264,0 -2.5474,0.1864 -1.24264,0.1864 -2.29888,0.68345 -0.9941,0.49705 -1.61542,1.42903 -0.62132,0.86984 -0.62132,2.23674 0,2.67166 1.67756,3.7279 1.67755,0.99411 4.53561,0.99411 z m -0.62131,-28.0214 q 3.7279,0 6.2753,0.93198 2.5474,0.93197 4.03856,2.60953 1.55329,1.67755 2.17461,4.10069 0.68345,2.36101 0.68345,5.21906 v 19.69575 q -1.73969,0.37279 -5.2812,0.86985 -3.47937,0.55918 -7.89072,0.55918 -2.92019,0 -5.34333,-0.55918 -2.42314,-0.55919 -4.16282,-1.80182 -1.67756,-1.24264 -2.67167,-3.23085 -0.93197,-1.98822 -0.93197,-4.90841 0,-2.79592 1.05624,-4.72201 1.11837,-1.92608 2.98232,-3.10658 1.86395,-1.24263 4.28708,-1.73969 2.48527,-0.55918 5.15694,-0.55918 1.24263,0 2.60953,0.18639 1.36689,0.12427 2.92019,0.49706 v -1.24264 q 0,-1.30476 -0.31066,-2.48527 -0.31066,-1.1805 -1.11837,-2.05034 -0.74558,-0.93198 -2.05035,-1.42903 -1.24263,-0.49705 -3.16871,-0.49705 -2.60954,0 -4.78415,0.37279 -2.1746,0.37279 -3.5415,0.86984 l -0.93198,-6.08891 q 1.42903,-0.49705 4.16283,-0.9941 2.73379,-0.49706 5.84038,-0.49706 z"
         style="font-weight:500;font-family:Ubuntu;-inkscape-font-specification:'Ubuntu Medium'"
         id="path47129" />
      <path
         d="m 699.93371,554.62181 q 0,-5.03267 -2.29888,-7.82859 -2.23674,-2.79593 -7.26941,-2.79593 -1.05623,0 -2.23674,0.12427 -1.11837,0.0621 -2.23674,0.37279 v 18.57737 q 0.99411,0.68345 2.60953,1.30477 1.67756,0.55918 3.54151,0.55918 4.10069,0 5.96464,-2.79592 1.92609,-2.79593 1.92609,-7.51794 z m 7.70433,-0.12426 q 0,3.7279 -0.99411,6.83449 -0.93198,3.10658 -2.7338,5.34332 -1.80181,2.23674 -4.53561,3.47938 -2.67166,1.24263 -6.08891,1.24263 -2.29887,0 -4.22495,-0.55918 -1.92608,-0.55919 -3.16872,-1.24264 v 12.61274 h -7.51793 v -42.93301 q 2.29887,-0.62131 5.65398,-1.1805 3.35511,-0.55918 7.08301,-0.55918 3.85217,0 6.89662,1.1805 3.04446,1.1805 5.15693,3.41724 2.17461,2.17461 3.29298,5.34333 1.18051,3.10658 1.18051,7.02088 z"
         style="font-weight:500;font-family:Ubuntu;-inkscape-font-specification:'Ubuntu Medium'"
         id="path47131" />
      <path
         d="m 737.04332,554.62181 q 0,-5.03267 -2.29887,-7.82859 -2.23674,-2.79593 -7.26941,-2.79593 -1.05624,0 -2.23674,0.12427 -1.11837,0.0621 -2.23674,0.37279 v 18.57737 q 0.99411,0.68345 2.60953,1.30477 1.67756,0.55918 3.54151,0.55918 4.10069,0 5.96464,-2.79592 1.92608,-2.79593 1.92608,-7.51794 z m 7.70434,-0.12426 q 0,3.7279 -0.99411,6.83449 -0.93198,3.10658 -2.7338,5.34332 -1.80182,2.23674 -4.53561,3.47938 -2.67166,1.24263 -6.08891,1.24263 -2.29887,0 -4.22495,-0.55918 -1.92608,-0.55919 -3.16872,-1.24264 v 12.61274 h -7.51793 v -42.93301 q 2.29887,-0.62131 5.65398,-1.1805 3.35511,-0.55918 7.08301,-0.55918 3.85217,0 6.89662,1.1805 3.04446,1.1805 5.15693,3.41724 2.17461,2.17461 3.29298,5.34333 1.18051,3.10658 1.18051,7.02088 z"
         style="font-weight:500;font-family:Ubuntu;-inkscape-font-specification:'Ubuntu Medium'"
         id="path47133" />
      <path
         d="m 750.79143,554.62181 q 0,-4.28708 1.24263,-7.51793 1.30477,-3.23085 3.41724,-5.34333 2.11248,-2.17461 4.84628,-3.23085 2.73379,-1.11837 5.59185,-1.11837 6.71022,0 10.43812,4.16283 3.79004,4.16282 3.79004,12.42634 0,0.62131 -0.0621,1.42902 0,0.74558 -0.0621,1.3669 h -21.43543 q 0.31066,3.9143 2.73379,6.08891 2.48527,2.11248 7.14515,2.11248 2.73379,0 4.97053,-0.49706 2.29888,-0.49705 3.60364,-1.05624 l 0.99411,6.15104 q -0.62132,0.31066 -1.73969,0.68345 -1.05624,0.31066 -2.48527,0.55919 -1.36689,0.31065 -2.98232,0.49705 -1.61542,0.18639 -3.29298,0.18639 -4.28708,0 -7.4558,-1.24263 -3.16872,-1.30477 -5.21906,-3.54151 -2.05035,-2.29887 -3.04446,-5.34332 -0.9941,-3.10659 -0.9941,-6.77236 z m 21.80822,-3.35511 q 0,-1.55329 -0.43492,-2.92019 -0.43492,-1.42903 -1.30477,-2.42314 -0.80771,-1.05623 -2.05034,-1.61542 -1.1805,-0.62132 -2.85806,-0.62132 -1.73969,0 -3.04445,0.68345 -1.30477,0.62132 -2.23674,1.67756 -0.86985,1.05624 -1.3669,2.42313 -0.49706,1.3669 -0.68345,2.79593 z"
         style="font-weight:500;font-family:Ubuntu;-inkscape-font-specification:'Ubuntu Medium'"
         id="path47135" />
      <path
         d="m 806.66483,544.9914 q -0.93198,-0.31066 -2.60954,-0.62132 -1.61542,-0.37279 -3.79003,-0.37279 -1.24263,0 -2.67166,0.24853 -1.3669,0.24853 -1.92608,0.43492 v 26.03318 h -7.51794 v -30.94158 q 2.17461,-0.80772 5.40546,-1.49116 3.29298,-0.74558 7.26941,-0.74558 0.74558,0 1.73968,0.12426 0.99411,0.0621 1.98822,0.24853 0.99411,0.12426 1.92608,0.37279 0.93198,0.18639 1.49116,0.37279 z"
         style="font-weight:500;font-family:Ubuntu;-inkscape-font-specification:'Ubuntu Medium'"
         id="path47137" />
    </g>
  </g>
</svg>
